<?xml version="1.0" encoding="UTF-8" standalone="no"?>
<svg
   xmlns:dc="http://purl.org/dc/elements/1.1/"
   xmlns:cc="http://creativecommons.org/ns#"
   xmlns:rdf="http://www.w3.org/1999/02/22-rdf-syntax-ns#"
   xmlns:svg="http://www.w3.org/2000/svg"
   xmlns="http://www.w3.org/2000/svg"
   xmlns:sodipodi="http://sodipodi.sourceforge.net/DTD/sodipodi-0.dtd"
   xmlns:inkscape="http://www.inkscape.org/namespaces/inkscape"
   width="49.72789mm"
   height="49.725128mm"
   viewBox="0 0 49.72789 49.725128"
   version="1.1"
   id="svg415"
   inkscape:version="1.0.2 (e86c8708, 2021-01-15)"
   sodipodi:docname="Buc-ee's.svg">
  <defs
     id="defs409" />
  <sodipodi:namedview
     id="base"
     pagecolor="#ffffff"
     bordercolor="#666666"
     borderopacity="1.0"
     inkscape:pageopacity="0.0"
     inkscape:pageshadow="2"
     inkscape:zoom="2.2375087"
     inkscape:cx="112.00819"
     inkscape:cy="115.05704"
     inkscape:document-units="mm"
     inkscape:current-layer="layer1"
     inkscape:document-rotation="0"
     showgrid="false" />
  <metadata
     id="metadata412">
    <rdf:RDF>
      <cc:Work
         rdf:about="">
        <dc:format>image/svg+xml</dc:format>
        <dc:type
           rdf:resource="http://purl.org/dc/dcmitype/StillImage" />
        <dc:title />
      </cc:Work>
    </rdf:RDF>
  </metadata>
  <g
     inkscape:label="Layer 1"
     inkscape:groupmode="layer"
     id="layer1"
     transform="translate(-78.048639,-116.47664)">
    <path
       style="fill:#211e1e;fill-opacity:1;fill-rule:nonzero;stroke:none;stroke-width:0.352778"
       d="m 119.24371,132.4798 c -0.007,-0.001 -0.0124,-0.003 -0.0207,-0.004 -0.0551,-0.0165 -0.11024,-0.0331 -0.1695,-0.0482 -0.0689,-0.0165 -0.14194,-0.0331 -0.21497,-0.0482 -10e-4,-0.0152 -10e-4,-0.0317 -0.003,-0.0469 -0.0524,-0.73449 -0.4327,-1.41938 -1.18924,-1.65364 -0.66835,-0.20671 -1.5503,0.0661 -2.3592,0.59117 -0.16399,-0.23151 -0.36932,-0.45888 -0.59808,-0.6711 -0.35415,-0.45889 -0.7965,-0.79237 -1.29673,-1.02802 0.20671,-1.42902 -0.10748,-3.37068 -0.10748,-4.84242 0,-0.56638 -0.051,-1.17134 -0.16813,-1.76665 0,-0.003 0,-0.005 -0.001,-0.008 -0.14194,-1.5186 -0.30179,-2.14561 -1.85346,-2.24758 -2.81947,-0.18466 -6.14743,-0.0538 -8.76708,1.06109 -1.50482,0.64216 -1.18649,1.88515 -1.31465,3.3693 -0.0413,0.45889 -0.0841,0.91777 -0.13367,1.3739 -2.378491,-0.19843 -4.802459,0.56776 -6.977002,1.84795 -1.513089,0.84336 -2.913176,1.93201 -4.099666,3.1185 -0.469911,-1.21129 -2.38125,-0.31281 -2.38125,0.82683 0,0.52641 0.31557,0.99907 0.777215,1.00734 -0.03996,0.0524 -0.07993,0.10473 -0.118512,0.15847 -1.124479,1.51998 -1.708767,3.1061 -1.853463,4.69223 -0.0689,0.37482 -0.117132,0.75654 -0.141936,1.14239 -0.177769,2.74643 1.533758,5.39915 3.274218,7.42211 0.0014,0.001 0.0014,0.001 0.0014,0.003 0.0689,0.0786 0.137802,0.15847 0.206703,0.23564 0,0.001 0.0014,0.001 0.0014,0.003 0,0 0.0014,-0.003 0.0014,-0.004 0.03583,0.0455 0.07028,0.0937 0.104729,0.14194 0.861275,1.25814 0.928797,3.49195 1.169956,5.24619 0.136426,0.99218 0.570505,1.93338 1.194759,2.72438 0.186034,0.76068 0.206703,1.52135 -0.170878,2.29994 -0.321084,0.65871 -1.011481,1.13413 -1.43316,1.72806 -0.0014,0.001 -0.0014,0.004 -0.0028,0.006 -0.640789,0.85438 -0.622875,1.69774 1.416621,2.22415 1.779048,0.42444 3.81441,-0.50712 5.254459,-1.35737 2.032607,-1.26917 3.468527,-1.85897 5.756067,-2.45153 l 0.42857,-0.0896 c 2.11943,-0.42306 4.14514,-0.67799 6.27008,-0.67799 1.86448,0 5.06153,-0.97703 6.36377,-1.65778 0.40653,-0.17088 0.7662,-0.39688 0.70832,-0.64906 -0.12954,-0.55672 -0.45889,-0.91502 -1.08314,-0.60358 0,0.001 -0.001,0.001 -0.001,0.001 -0.003,0 -0.004,0.001 -0.007,0.001 -0.0179,0.006 -0.0345,0.011 -0.0524,0.0193 -1.22508,0.45062 -2.23518,0.20671 -3.14744,-0.73863 -0.24391,-0.25356 -0.46991,-0.55535 -0.65456,-0.88608 -0.15159,-0.48644 -0.19293,-0.97978 -0.0923,-1.41938 0.28663,-0.48644 0.61322,-1.1231 0.67799,-1.6936 0.82682,-0.12265 1.66742,-0.58154 2.37298,-0.8475 0.93156,-0.339 2.03123,-0.76205 2.7106,-1.44005 0.53193,-0.53192 1.08314,-2.22691 0.49196,-2.35093 1.80385,-0.91502 2.1773,-3.70968 1.79834,-5.61413 2.13321,-1.66329 2.61276,-5.73539 -0.56775,-6.39823"
       id="path88" />
    <path
       style="fill:#f8d405;fill-opacity:1;fill-rule:nonzero;stroke:none;stroke-width:0.352778"
       d="m 119.81147,138.87803 c 0.37895,1.90444 0.005,4.70048 -1.79834,5.61412 0.58979,0.12403 0.04,1.81901 -0.49196,2.35094 -0.67938,0.67799 -1.77767,1.10105 -2.71061,1.44004 -0.70693,0.26597 -1.54753,0.72485 -2.37298,0.8475 -0.0648,0.57051 -0.39274,1.20854 -0.67799,1.69361 -0.1006,0.43959 -0.0579,0.93293 0.0923,1.41938 0.18465,0.33072 0.41065,0.63252 0.65456,0.88607 0.91227,0.94534 1.92237,1.18925 3.14744,0.73863 0.0179,-0.008 0.0345,-0.0138 0.0524,-0.0193 0.003,0 0.005,-0.001 0.007,-0.001 0.001,0 0.001,0 0.001,-0.001 0.62425,-0.31143 0.9536,0.0469 1.08314,0.60359 0.0579,0.25218 -0.30179,0.47818 -0.70831,0.65043 -1.30225,0.67937 -4.4993,1.6564 -6.36378,1.6564 -2.12494,0 -4.15065,0.25494 -6.27008,0.678 l -0.42857,0.0896 c -2.28754,0.59255 -3.723456,1.18236 -5.756062,2.45153 -1.441426,0.84887 -3.475412,1.7818 -5.254459,1.35737 -2.039497,-0.52641 -2.057411,-1.36977 -1.418001,-2.22416 0.0014,-0.003 0.0028,-0.004 0.0041,-0.005 0.421679,-0.59394 1.112076,-1.06936 1.43316,-1.72806 0.377582,-0.77859 0.355533,-1.53927 0.170878,-2.29995 -0.624254,-0.79099 -1.058333,-1.73219 -1.194759,-2.72438 -0.241159,-1.75424 -0.31006,-3.98942 -1.169956,-5.24619 -0.03583,-0.0469 -0.07166,-0.0937 -0.107488,-0.14056 -0.0689,-0.0772 -0.137802,-0.1571 -0.206703,-0.23565 0,-10e-4 -0.0014,-10e-4 -0.0014,-0.003 -1.739085,-2.02296 -3.451987,-4.67568 -3.274219,-7.42211 0.0248,-0.38585 0.07304,-0.76757 0.141937,-1.14239 0.144695,-1.58613 0.728984,-3.17225 1.853463,-4.69223 0.03858,-0.0537 0.07855,-0.10611 0.118512,-0.15985 -0.461645,-0.007 -0.777215,-0.47956 -0.777215,-1.00596 0,-1.13964 1.911339,-2.03812 2.38125,-0.82683 1.18649,-1.18649 2.586577,-2.27376 4.099665,-3.1185 2.174544,-1.2802 4.598511,-2.04639 6.977007,-1.84795 0.0482,-0.45613 0.0923,-0.91502 0.13367,-1.3739 0.12815,-1.48415 -0.19155,-2.72714 1.31464,-3.36931 2.61965,-1.11483 5.94761,-1.24574 8.76708,-1.06108 1.55167,0.10197 1.71152,0.72898 1.85346,2.24758 0,0.003 10e-4,0.005 10e-4,0.008 0.11713,0.59669 0.16949,1.20027 0.16949,1.76664 0,1.47175 0.31282,3.4134 0.10611,4.84243 0.50023,0.23564 0.94258,0.57051 1.29674,1.02802 0.23013,0.21222 0.43408,0.43959 0.59944,0.6711 0.80891,-0.52365 1.69086,-0.79788 2.35783,-0.59118 0.75654,0.23427 1.13688,0.91916 1.18924,1.65365 0.0648,0.0358 0.13643,0.0675 0.21774,0.0951 0.0593,0.0152 0.11437,0.0317 0.17087,0.0482 0.007,0.001 0.0124,0.003 0.0193,0.004 3.18051,0.66284 2.70095,4.73494 0.56775,6.39824 m 5.01744,-6.79649 c -1.1989,-2.83187 -2.9118,-5.37573 -5.09874,-7.5613 -2.1842,-2.18419 -4.72805,-3.89984 -7.5613,-5.09874 -2.93109,-1.23885 -6.04546,-1.86724 -9.25766,-1.86724 -3.210827,0 -6.325191,0.62839 -9.257656,1.86724 -2.831871,1.1989 -5.377106,2.91455 -7.561298,5.09874 -2.184188,2.18557 -3.899845,4.72943 -5.09736,7.5613 -1.240236,2.93108 -1.868622,6.04821 -1.868622,9.25904 0,3.2122 0.628386,6.32519 1.868622,9.25766 1.197515,2.83187 2.913172,5.37572 5.09736,7.5613 2.184192,2.18281 4.729427,3.89984 7.561298,5.09736 2.932465,1.24023 6.046829,1.86862 9.257656,1.86862 3.2122,0 6.32657,-0.62839 9.25766,-1.86862 2.83325,-1.19752 5.3771,-2.91455 7.5613,-5.09736 2.18694,-2.18558 3.89984,-4.72943 5.09874,-7.5613 1.24023,-2.93247 1.86862,-6.04546 1.86862,-9.25766 0,-3.21083 -0.62839,-6.32796 -1.86862,-9.25904"
       id="path90" />
    <path
       style="fill:#211911;fill-opacity:1;fill-rule:nonzero;stroke:none;stroke-width:0.352778"
       d="m 119.73154,158.15954 c -2.18419,2.18281 -4.72943,3.89984 -7.56268,5.09736 -2.93108,1.24023 -6.04545,1.86862 -9.25765,1.86862 -3.210835,0 -6.3252,-0.62839 -9.257665,-1.86862 -2.831871,-1.19752 -5.375726,-2.91455 -7.561298,-5.09736 -2.184188,-2.18557 -3.899845,-4.72805 -5.09736,-7.5613 -1.240236,-2.93247 -1.868621,-6.04545 -1.868621,-9.25766 0,-3.21083 0.628385,-6.32657 1.868621,-9.25904 1.197515,-2.83187 2.913172,-5.37573 5.09736,-7.56129 2.185572,-2.1842 4.729427,-3.89985 7.561298,-5.09875 2.932465,-1.23885 6.04683,-1.86724 9.257665,-1.86724 3.2122,0 6.32657,0.62839 9.25765,1.86724 2.83325,1.1989 5.37849,2.91455 7.56268,5.09875 2.18419,2.18556 3.89985,4.72942 5.09736,7.56129 1.24024,2.93247 1.86862,6.04821 1.86862,9.25904 0,3.21221 -0.62838,6.32519 -1.86862,9.25766 -1.19751,2.83325 -2.91317,5.37573 -5.09736,7.5613 m -16.82033,-41.6829 c -13.732157,0 -24.862571,11.13179 -24.862571,24.86394 0,13.73215 11.130414,24.86119 24.862571,24.86119 13.73215,0 24.86394,-11.12904 24.86394,-24.86119 0,-13.73215 -11.13179,-24.86394 -24.86394,-24.86394"
       id="path92" />
    <path
       style="fill:#211e1e;fill-opacity:1;fill-rule:nonzero;stroke:none;stroke-width:0.352778"
       d="m 119.02047,138.77881 c -0.0221,0.0138 -0.0455,0.0276 -0.0675,0.04 0.0276,0.004 0.0524,0.008 0.0744,0.011 -0.003,-0.0165 -0.004,-0.0345 -0.007,-0.051"
       id="path94" />
    <path
       style="fill:#211e1e;fill-opacity:1;fill-rule:nonzero;stroke:none;stroke-width:0.352778"
       d="m 119.05354,132.42743 c -0.0799,-0.0275 -0.15296,-0.0593 -0.21773,-0.0951 0.001,0.0152 0.001,0.0317 0.003,0.0469 0.073,0.0152 0.14607,0.0317 0.21497,0.0482"
       id="path96" />
    <path
       style="fill:#211e1e;fill-opacity:1;fill-rule:nonzero;stroke:none;stroke-width:0.352778"
       d="m 89.735782,146.96711 c 0,-0.001 -0.0014,-0.001 -0.0014,-0.003 0.03447,0.0469 0.07166,0.0937 0.107488,0.14056 -0.03447,-0.0482 -0.0689,-0.0965 -0.104729,-0.14194 0,0 -0.0014,0.004 -0.0014,0.004"
       id="path98" />
    <path
       style="fill:#211e1e;fill-opacity:1;fill-rule:nonzero;stroke:none;stroke-width:0.352778"
       d="m 99.413743,135.40399 c 0,0.001 0,0.001 0,0.001 0,-0.001 0.0014,-0.001 0.0014,-0.003 0,10e-4 -0.0014,10e-4 -0.0014,10e-4"
       id="path100" />
    <path
       style="fill:#211e1e;fill-opacity:1;fill-rule:nonzero;stroke:none;stroke-width:0.352778"
       d="m 114.82297,145.782 c -0.0455,-0.004 -0.0896,-0.011 -0.1323,-0.0207 0.0289,0.0138 0.0538,0.0303 0.0744,0.0469 0.0193,-0.008 0.0386,-0.0165 0.0579,-0.0262"
       id="path102" />
    <path
       style="fill:#211e1e;fill-opacity:1;fill-rule:nonzero;stroke:none;stroke-width:0.352778"
       d="m 112.56574,141.58449 c 0.32108,-0.1006 0.63527,-0.22462 0.93844,-0.36931 -0.32521,0.13642 -0.64216,0.26045 -0.93844,0.36931"
       id="path104" />
    <path
       style="fill:#733f23;fill-opacity:1;fill-rule:nonzero;stroke:none;stroke-width:0.352778"
       d="m 109.06966,152.64187 c 0.28387,0.49334 0.30041,1.14515 0.32384,1.70326 0.0179,0.43132 0.0386,0.89434 -0.0455,1.32842 0.64768,-0.0717 1.2926,-0.16398 1.93201,-0.2949 0.97289,-0.19981 1.94855,-0.42857 2.89388,-0.74138 -1.55443,-0.27561 -2.96278,-2.09186 -3.07302,-3.6835 -0.56224,0.64906 -1.2678,1.20303 -2.03123,1.6881"
       id="path106" />
    <path
       style="fill:#733f23;fill-opacity:1;fill-rule:nonzero;stroke:none;stroke-width:0.352778"
       d="m 95.673748,157.40299 c -1.190625,-0.29903 -2.287542,-0.86678 -3.08405,-1.84243 0.169499,0.91363 0.07993,1.82038 -0.613227,2.59071 -0.334863,0.37069 -0.821309,0.75516 -1.045929,1.20854 -0.567754,1.15066 1.858973,1.23334 2.447395,1.12172 2.031228,-0.38172 3.559472,-1.55581 5.375727,-2.42535 0.181899,-0.0868 0.363802,-0.1695 0.54846,-0.24942 -1.241612,0.0689 -2.457044,-0.0248 -3.628376,-0.40377"
       id="path108" />
    <path
       style="fill:#ffffff;fill-opacity:1;fill-rule:nonzero;stroke:none;stroke-width:0.352778"
       d="m 114.61488,141.09391 c -0.11437,1.03491 -0.89572,5.06016 0.7469,4.19613 1.22508,-0.64217 1.55029,-2.8801 1.42903,-4.11896 -0.0276,-0.28663 0.40514,-0.37207 0.44648,-0.0799 0.0992,0.71658 -0.008,1.92237 -0.3831,2.93247 2.0712,-0.72347 2.44326,-3.23563 2.17317,-5.19245 -0.0221,-0.004 -0.0469,-0.008 -0.0744,-0.011 -0.67386,0.41479 -1.45797,0.62563 -2.2903,0.50023 -0.0152,-0.003 -0.0289,-0.007 -0.0427,-0.011 -0.4961,0.70555 -1.20716,1.30775 -2.00505,1.78456"
       id="path110" />
    <path
       style="fill:#ffffff;fill-opacity:1;fill-rule:nonzero;stroke:none;stroke-width:0.352778"
       d="m 114.11328,132.27171 c 0.21359,-0.23702 0.45062,-0.46026 0.70142,-0.66008 -0.0662,-0.12265 -0.13643,-0.24116 -0.20946,-0.35278 -0.0648,0.0551 -0.17226,0.0868 -0.35002,0.0703 -0.54295,-0.16123 -1.51585,-0.59531 -1.84106,-1.08313 -0.22876,-0.32798 -0.23978,-0.55535 -0.0565,-0.64768 -0.37896,-0.11163 -0.77859,-0.17639 -1.19476,-0.19982 -1.54203,1.20854 1.79558,3.04409 2.95038,2.87321"
       id="path112" />
    <path
       style="fill:#b3173f;fill-opacity:1;fill-rule:nonzero;stroke:none;stroke-width:0.352778"
       d="m 107.68197,129.68238 c 0.99081,-0.3266 2.18833,-0.5774 3.34864,-0.57602 0.0358,-0.0152 0.0703,-0.0138 0.10197,0.001 0.51677,0.007 1.02526,0.0648 1.50206,0.19017 0.11714,-1.18236 -0.005,-2.35231 -0.0661,-3.54018 -0.0537,-1.03353 0.0565,-2.12356 -0.14608,-3.13917 -0.22048,-1.10243 -0.46577,-1.3932 -1.47036,-1.43867 -0.65044,-0.0289 -1.30087,-0.0372 -1.94993,-0.0152 -1.61644,0.0524 -3.27973,0.16536 -4.85207,0.56499 -0.66421,0.16812 -1.51171,0.35829 -2.05328,0.82132 -0.60082,0.51262 -0.42719,2.47771 -0.5016,3.24665 -0.29215,2.97243 -0.81442,5.84013 -1.794207,8.58794 2.056027,-2.25034 5.069797,-3.77445 7.880997,-4.70325"
       id="path114" />
    <path
       style="fill:#b3173f;fill-opacity:1;fill-rule:nonzero;stroke:none;stroke-width:0.352778"
       d="m 89.090858,135.89457 c 0.564999,-1.24023 2.283411,-0.96187 3.391355,-0.5898 1.112076,0.37345 2.033983,0.98392 2.71749,1.8576 0.216351,0.17638 0.520897,0.38172 0.752408,0.3762 0.01792,-0.0455 0.03721,-0.0896 0.05512,-0.13505 0.07304,-0.18603 0.337619,-0.0799 0.286632,0.10611 -0.639409,2.39779 -3.115744,4.7942 -5.596212,5.2021 -0.202572,0.0317 -0.319705,-0.28664 -0.112998,-0.35416 0.06477,-0.0221 0.129536,-0.0441 0.194302,-0.0675 -2.395029,-0.87368 -2.600356,-4.38906 -1.688098,-6.39548 m 1.051444,10.44278 c 4.471733,-2.74781 7.62193,-7.48551 9.354125,-12.36101 0.770324,-2.17179 1.189244,-4.40145 1.460724,-6.66694 -2.751947,-0.32522 -5.881471,0.84198 -8.399147,2.51905 -1.442804,1.01837 -2.70371,2.22966 -3.621486,3.47128 -1.223698,1.65089 -2.211751,3.63939 -2.262738,5.71472 0.0083,0.73587 0.130916,1.48277 0.388606,2.22967 0.644924,1.86448 1.774913,3.36103 2.851164,4.97885 0.06477,0.0275 0.143316,0.0661 0.228752,0.11438"
       id="path116" />
    <path
       style="fill:#ffffff;fill-opacity:1;fill-rule:nonzero;stroke:none;stroke-width:0.352778"
       d="m 116.69572,144.59964 c -0.04,0.0221 -0.0785,0.0289 -0.113,0.0262 -0.23289,0.42443 -0.52917,0.77446 -0.89434,0.97565 -1.10106,1.14377 -2.95452,1.65089 -4.49379,1.43454 -1.10656,-0.15297 -1.87137,-0.66559 -1.87,-1.53514 -0.47818,0.62563 -1.02801,1.19476 -1.62884,1.68534 -0.11851,0.0965 -0.30041,-0.10473 -0.1943,-0.20946 0.226,-0.22186 0.45475,-0.45888 0.67937,-0.70831 0.22876,-0.26183 0.47267,-0.54846 0.71658,-0.853 0.93707,-1.2113 1.70326,-2.62517 1.84244,-4.07349 0.0179,-0.1819 0.0234,-0.35002 0.022,-0.50987 -0.0661,-0.31419 -0.19431,-0.61874 -0.39963,-0.90675 -0.60772,-0.85576 -1.64124,-1.11345 -2.63481,-0.77446 -0.51814,0.17777 -1.00735,0.41204 -1.47175,0.6904 -0.0179,0.0138 -0.0358,0.0262 -0.0537,0.04 -3.39549,2.61001 -5.04224,6.17362 -5.72161,10.33804 -0.0386,0.24392 -0.39412,0.23152 -0.41479,0.0152 0,0 0,0 0,0.001 0,-0.001 0,-0.001 0,-0.003 -0.001,-0.0165 -0.001,-0.0345 0.001,-0.0537 0.19292,-1.25815 0.47266,-2.5287 0.88607,-3.74827 -0.46853,0.34314 -0.90675,0.72072 -1.314645,1.12862 -0.281118,0.39412 -0.559484,0.81304 -0.821309,1.2485 -1.10932,2.87183 0.187413,6.69727 3.232874,7.65225 0.2136,-0.0427 0.42582,-0.0841 0.63666,-0.12541 2.05603,-0.39412 4.14789,-0.41754 6.21357,-0.61598 0.0689,-0.58291 0.13367,-1.14101 0.0648,-1.75011 -0.0455,-0.40928 -0.1571,-0.76205 -0.1695,-1.15755 -1.15066,0.69591 -2.4033,1.24988 -3.4699,1.74322 -0.52228,0.24254 -0.17363,-0.1571 0.10335,-0.28526 2.44878,-1.13412 5.68303,-2.52594 6.14467,-5.51904 0.006,-0.0386 0.0386,-0.0786 0.0854,-0.11575 -0.62563,0.0606 -1.25263,0.0331 -1.84933,-0.13919 -0.17638,-0.0496 -0.10748,-0.33073 0.0703,-0.31005 1.757,0.21773 3.50022,-0.22324 5.11253,-0.91915 0.76481,-0.33211 1.75148,-0.71107 2.10288,-1.53514 0.17915,-0.42444 0.46854,-1.61782 -0.39963,-1.13137"
       id="path118" />
    <path
       style="fill:#733f23;fill-opacity:1;fill-rule:nonzero;stroke:none;stroke-width:0.352778"
       d="m 113.77566,132.6865 c -1.57096,-0.14607 -4.3863,-1.99264 -3.11024,-3.29627 -4.05005,0.0772 -9.37892,3.63389 -11.250298,6.01238 -0.0014,10e-4 -0.0014,10e-4 -0.0014,0.003 -0.384471,0.94947 -0.826823,1.88516 -1.339451,2.80569 -1.762513,3.16811 -4.298104,6.60769 -7.62055,8.32335 0.0096,0.008 0.0193,0.0152 0.0303,0.0221 0.113002,0.0841 0.203952,0.16536 0.241159,0.22737 1.263661,2.12494 0.631141,5.62102 1.777668,7.89616 0.700042,1.07487 1.726682,1.757 2.902148,2.14285 1.886535,0.50436 3.903983,0.17915 5.841504,-0.20119 -2.036739,-1.01424 -3.471279,-3.67248 -3.345877,-6.00963 -0.694531,1.68672 -0.95498,3.50849 -0.179144,5.22001 0.04272,0.0937 -0.278363,-0.0951 -0.31557,-0.17914 -0.844737,-1.86035 -0.493339,-3.84059 0.318326,-5.64583 -0.531922,0.86955 -0.97565,1.79697 -1.332562,2.74919 -0.108867,0.28939 -0.276987,0.565 -0.446486,0.82131 -0.02205,0.0345 -0.293522,0.41341 -0.202572,0.16399 0.701421,-1.90996 1.706012,-3.95635 3.00688,-5.71473 0.16812,-0.226 0.341753,-0.44786 0.519522,-0.66283 0.02067,-0.0289 0.03996,-0.0579 0.06063,-0.0854 0.0028,-0.005 0.0097,-0.008 0.01655,-0.008 0.620116,-0.74277 1.300863,-1.41525 2.039493,-1.97887 0.50161,-1.18235 1.15066,-2.29443 1.99402,-3.27559 0.46991,-0.54708 0.98117,-1.11484 1.53789,-1.63987 0.33349,-0.35691 0.68489,-0.69591 1.05282,-0.99908 -1.77904,-0.0799 -3.43682,-1.19338 -3.80889,-3.062 -0.3707,-1.85208 0.51814,-3.54707 2.384,-4.09828 1.95682,-0.5774 4.25263,0.10473 5.20761,2.02985 0.30868,0.62287 0.55397,1.28709 0.60082,1.98851 0.0193,0.2756 0.0427,0.5581 0.0358,0.83646 0.0427,-0.0372 0.0909,-0.0772 0.14883,-0.1254 0.63803,-0.71106 1.68121,-1.1796 2.63757,-1.11621 0.10473,-0.1254 0.21084,-0.24942 0.32246,-0.36656 -0.67662,-0.77308 -0.4079,-1.84105 0.27698,-2.77674"
       id="path120" />
    <path
       style="fill:#211e1e;fill-opacity:1;fill-rule:nonzero;stroke:none;stroke-width:0.352778"
       d="m 89.52632,146.72595 c 0,10e-4 0.0014,10e-4 0.0014,0.003 0,-0.001 -0.0014,-0.001 -0.0014,-0.003 z m 0,0"
       id="path122" />
    <path
       style="fill:#211e1e;fill-opacity:1;fill-rule:nonzero;stroke:none;stroke-width:0.352778"
       d="m 113.77566,132.6865 c 0.10473,-0.14194 0.21635,-0.28112 0.33762,-0.41479 -1.1548,0.17088 -4.49241,-1.66467 -2.95038,-2.87183 -0.16261,-0.01 -0.32935,-0.0124 -0.49748,-0.01 -1.27606,1.30363 1.53928,3.15019 3.11024,3.29627"
       id="path124" />
    <path
       style="fill:#211e1e;fill-opacity:1;fill-rule:nonzero;stroke:none;stroke-width:0.352778"
       d="m 111.03061,129.10636 c 0.0345,0 0.0675,0 0.10197,0.001 -0.0317,-0.0152 -0.0662,-0.0165 -0.10197,-0.001"
       id="path126" />
    <path
       style="fill:#ffffff;fill-opacity:1;fill-rule:nonzero;stroke:none;stroke-width:0.352778"
       d="m 107.48629,134.2051 c -0.3638,-0.33073 -0.84611,-0.3955 -1.06798,-0.14607 -0.226,0.25218 -0.10749,0.71933 0.25769,1.04868 0.36656,0.32935 0.8475,0.3955 1.07074,0.14608 0.22324,-0.25081 0.10887,-0.72072 -0.26045,-1.04869"
       id="path128" />
    <path
       style="fill:#ffffff;fill-opacity:1;fill-rule:nonzero;stroke:none;stroke-width:0.352778"
       d="m 108.6025,136.87022 c -0.52641,0.59807 -1.66605,0.45476 -2.54661,-0.31832 -0.87644,-0.77446 -1.16307,-1.88654 -0.63666,-2.4846 0.13092,-0.14883 0.30042,-0.25219 0.49334,-0.31144 -0.13229,0.005 -0.25769,0.022 -0.37482,0.0524 -2.52732,0.65182 -2.1084,4.3174 0.61047,4.21818 0.113,-0.006 0.32935,0.2632 0.30041,0.26458 -1.35737,0.051 -2.81395,-0.93431 -2.95865,-2.37023 -0.19844,-1.98851 1.92512,-2.88974 3.56499,-2.13733 0.52641,0.24253 1.02388,0.56499 1.32842,1.05144 0.53606,0.71107 0.64906,1.54616 0.21911,2.03536 m 10.18233,-4.13136 c -0.007,0.0703 -0.0179,0.14057 -0.0303,0.20947 -0.19981,1.04455 -0.79237,1.97059 -1.67845,2.53421 -0.0152,0.14056 -0.0551,0.28801 -0.12126,0.44097 -0.0661,0.11851 -0.19706,0.31006 -0.3266,0.50161 -0.001,0.001 -0.001,0.006 -0.003,0.007 l -0.004,10e-4 c -0.17088,0.25356 -0.33762,0.50298 -0.34313,0.57602 0.0124,-0.16399 -0.001,-0.31557 -0.0386,-0.45338 -0.23014,-0.87367 -1.36289,-1.2044 -2.17593,-0.74689 -0.78824,0.44786 -1.56131,1.19338 -1.99678,1.98988 -0.0207,0.0372 -0.0427,0.0772 -0.0675,0.11713 -0.28112,0.47405 -0.79099,1.13689 -0.28939,0.1888 0.35278,-0.66422 0.75517,-1.36977 1.23335,-2.00781 -1.08728,0.0606 -2.06431,0.82821 -2.61966,1.72944 -0.0978,0.1571 -0.3321,0.0537 -0.32383,-0.11575 0.0923,-1.75287 -0.31833,-3.78685 -2.00229,-4.71427 -1.35461,-0.74414 -3.30178,-0.81718 -4.53099,0.27285 -0.99495,0.88332 -1.22646,1.9389 -0.97152,2.90353 0.19568,0.62287 0.565,1.22645 1.07349,1.73081 0.77033,0.72072 1.83555,1.18098 2.92971,1.12999 0.47267,-0.34037 0.97014,-0.61736 1.48828,-0.80064 2.24345,-0.79237 3.20945,0.46578 3.24391,2.1277 0.0179,0.175 0.0207,0.35415 0.004,0.53468 -0.0289,0.33486 -0.0799,0.66834 -0.15158,0.99769 0.51814,-0.0524 1.02939,-0.15847 1.52273,-0.31832 0.29628,-0.11162 0.61185,-0.23703 0.93569,-0.37759 0.43132,-0.21083 0.84198,-0.46715 1.21956,-0.7717 0.99632,-0.79926 1.56821,-1.77078 2.34267,-2.74505 0.0565,-0.0703 0.20119,-0.0413 0.1819,0.0661 -0.0703,0.40101 -0.2136,0.78135 -0.41066,1.13963 3.23701,0.24667 5.72713,-5.26824 1.90996,-6.14742"
       id="path130" />
    <path
       style="fill:#733f23;fill-opacity:1;fill-rule:nonzero;stroke:none;stroke-width:0.352778"
       d="m 94.99851,139.23494 c 0.223242,-0.41755 0.383096,-0.86541 0.378961,-1.29122 -0.690397,-1.0983 -1.74184,-1.96095 -3.031684,-2.26826 -0.285256,-0.0675 -1.061092,-0.24391 -1.704633,-0.25769 2.062921,0.49334 3.20118,3.04546 2.377116,5.045 0.0937,0.14056 0.01101,0.39687 -0.214976,0.39136 -2.368846,-0.0675 -3.792361,-2.06568 -3.540178,-4.18786 -0.01101,0.0331 -0.02067,0.0661 -0.02893,0.0992 -0.548457,2.11254 -0.0028,4.192 2.000913,5.23379 0.04134,0.0207 0.07166,0.0482 0.09233,0.0799 1.477257,-0.6215 2.743672,-1.57648 3.671093,-2.84427"
       id="path132" />
    <path
       style="fill:#ffffff;fill-opacity:1;fill-rule:nonzero;stroke:none;stroke-width:0.352778"
       d="m 92.789515,140.37457 c 0.574643,-1.77766 -0.432703,-4.56957 -2.55626,-4.62607 -1.01975,-0.0262 -0.500228,2.46118 -0.227379,2.97105 0.585667,1.08727 1.57372,1.61369 2.783639,1.65502"
       id="path134" />
    <path
       style="fill:#b3173f;fill-opacity:1;fill-rule:nonzero;stroke:none;stroke-width:0.352778"
       d="m 112.91852,142.74756 c -0.48231,-0.011 -0.95498,0.47817 -1.11621,1.10656 -0.36243,-0.14194 -0.79926,-0.26871 -1.13964,-0.23289 0,0 -0.13229,0.0413 -0.27423,0.14194 -0.16261,0.11713 -0.33486,0.31557 -0.32935,0.62976 0.005,0.23978 0.11437,0.54571 0.41479,0.93432 0,0 0.60634,0.76205 1.80799,1.01836 0.33348,0.0717 0.71244,0.10336 1.13825,0.0703 0,0 0.76895,0.0179 1.41938,-0.53054 0,0 -0.0262,-0.0386 -0.0744,-0.0772 -0.0207,-0.0165 -0.0455,-0.0331 -0.0744,-0.0469 -0.0345,-0.0165 -0.0744,-0.0276 -0.11851,-0.0317 -0.0441,-0.003 -0.0923,0.001 -0.14745,0.0207 0,0 -0.57188,0.14194 -0.99356,0.0413 0.23013,-0.1695 0.41203,-0.45062 0.50712,-0.79237 0.0413,-0.15297 0.0661,-0.31695 0.0703,-0.48783 0.007,-0.28939 -0.0565,-0.59531 -0.16537,-0.86816 -0.19706,-0.49472 -0.54846,-0.88746 -0.92466,-0.89572"
       id="path136" />
    <path
       style="fill:#211c1c;fill-opacity:1;fill-rule:nonzero;stroke:none;stroke-width:0.352778"
       d="m 126.39849,156.68228 c -0.0813,-0.0469 -0.21498,-0.0689 -0.39826,-0.0689 h -0.27974 v 0.66421 h 0.29628 c 0.14056,0 0.24391,-0.0138 0.31282,-0.0427 0.12953,-0.0482 0.19292,-0.14469 0.19292,-0.28388 0,-0.13366 -0.0413,-0.22461 -0.12402,-0.26871 m -0.35003,-0.29904 c 0.23151,0 0.40101,0.0221 0.5085,0.0661 0.19293,0.0799 0.28801,0.23702 0.28801,0.46991 0,0.16537 -0.0606,0.28801 -0.1819,0.36656 -0.0662,0.04 -0.15572,0.0703 -0.27147,0.0882 0.14469,0.0234 0.24942,0.0841 0.31695,0.18191 0.0675,0.0978 0.0992,0.1943 0.0992,0.28663 v 0.13504 c 0,0.0441 0.003,0.0896 0.005,0.13919 0.004,0.0482 0.01,0.0799 0.0193,0.0965 l 0.0124,0.0234 h -0.31419 c -0.003,-0.008 -0.004,-0.0124 -0.005,-0.0179 -0.001,-0.008 -0.003,-0.0138 -0.004,-0.0221 l -0.008,-0.0592 v -0.14745 c 0,-0.2136 -0.0565,-0.35416 -0.17363,-0.42306 -0.0689,-0.04 -0.19017,-0.0592 -0.36242,-0.0592 h -0.25632 v 0.72898 h -0.32384 v -1.85346 z m -0.99907,-0.0992 c -0.28526,0.28525 -0.4272,0.62838 -0.4272,1.03077 0,0.40514 0.14194,0.75103 0.42444,1.03766 0.28525,0.28525 0.63114,0.42857 1.03629,0.42857 0.40652,0 0.7524,-0.14332 1.03766,-0.42857 0.28387,-0.28663 0.42443,-0.63252 0.42443,-1.03766 0,-0.40239 -0.14056,-0.74552 -0.42443,-1.03077 -0.28663,-0.28526 -0.63114,-0.4272 -1.03766,-0.4272 -0.40377,0 -0.74828,0.14194 -1.03353,0.4272 m 2.23242,2.22966 c -0.33211,0.33211 -0.73174,0.49747 -1.20027,0.49747 -0.46991,0 -0.86954,-0.16536 -1.19889,-0.49747 -0.3266,-0.33073 -0.49059,-0.73174 -0.49059,-1.20165 0,-0.4644 0.16537,-0.86265 0.4961,-1.19338 0.32935,-0.32935 0.7276,-0.49196 1.19338,-0.49196 0.46853,0 0.86816,0.16261 1.20027,0.49196 0.33073,0.32935 0.49472,0.72761 0.49472,1.19338 0,0.46991 -0.16399,0.86955 -0.49472,1.20165"
       id="path138" />
    <path
       style="fill:#ffffff;fill-opacity:1;fill-rule:nonzero;stroke:none;stroke-width:0.352778"
       d="m 118.31078,132.26206 c -0.22462,0.25081 -0.70555,0.18604 -1.07074,-0.14331 -0.36793,-0.32935 -0.48231,-0.79927 -0.26044,-1.04869 0.22462,-0.24942 0.70418,-0.18603 1.07073,0.14332 0.36794,0.32935 0.48232,0.79926 0.26045,1.04868"
       id="path140" />
  </g>
</svg>
