<?xml version="1.0" encoding="UTF-8" standalone="no"?>
<!-- Created with Inkscape (http://www.inkscape.org/) -->

<svg
   xmlns:dc="http://purl.org/dc/elements/1.1/"
   xmlns:cc="http://creativecommons.org/ns#"
   xmlns:rdf="http://www.w3.org/1999/02/22-rdf-syntax-ns#"
   xmlns:svg="http://www.w3.org/2000/svg"
   xmlns="http://www.w3.org/2000/svg"
   xmlns:sodipodi="http://sodipodi.sourceforge.net/DTD/sodipodi-0.dtd"
   xmlns:inkscape="http://www.inkscape.org/namespaces/inkscape"
   width="252.83411"
   height="97.745247"
   viewBox="0 0 66.89569 25.861762"
   version="1.1"
   id="svg1852"
   inkscape:version="0.92.0 r15299"
   sodipodi:docname="freddys.svg">
  <defs
     id="defs1846" />
  <sodipodi:namedview
     id="base"
     pagecolor="#ffffff"
     bordercolor="#666666"
     borderopacity="1.0"
     inkscape:pageopacity="0.0"
     inkscape:pageshadow="2"
     inkscape:zoom="1.9738941"
     inkscape:cx="187.23095"
     inkscape:cy="-39.267054"
     inkscape:document-units="mm"
     inkscape:current-layer="layer1"
     showgrid="false"
     fit-margin-top="0"
     fit-margin-left="0"
     fit-margin-right="0"
     fit-margin-bottom="0"
     units="px"
     inkscape:window-width="1280"
     inkscape:window-height="744"
     inkscape:window-x="-4"
     inkscape:window-y="-4"
     inkscape:window-maximized="1" />
  <metadata
     id="metadata1849">
    <rdf:RDF>
      <cc:Work
         rdf:about="">
        <dc:format>image/svg+xml</dc:format>
        <dc:type
           rdf:resource="http://purl.org/dc/dcmitype/StillImage" />
        <dc:title></dc:title>
      </cc:Work>
    </rdf:RDF>
  </metadata>
  <g
     inkscape:label="Layer 1"
     inkscape:groupmode="layer"
     id="layer1"
     transform="translate(-58.286977,-194.12838)">
    <path
       inkscape:connector-curvature="0"
       id="path130"
       style="fill:#df002c;fill-opacity:1;fill-rule:nonzero;stroke:none;stroke-width:0.35277778"
       d="m 77.683453,194.47147 c 0.226483,-0.18274 0.4826,-0.0205 0.414514,0.25435 -0.141817,1.00189 -0.77717,1.54094 -1.569156,1.99531 -1.038577,0.63677 -4.016022,0.83961 -7.060494,0.27552 -2.915708,-0.54151 -6.099528,-0.55562 -6.509103,1.04458 -0.1524,0.59549 0.194028,0.99554 0.552803,1.14406 0.222603,0.10089 0.523522,0.10759 0.7874,-0.0589 0.518584,0.28822 0.625828,1.10631 0.201084,1.65629 -0.212725,0.27552 -0.757414,0.58103 -1.547284,0.29845 -0.800805,-0.2868 -1.664758,-1.50636 -1.199091,-3.25367 0.936625,-3.6015 6.090708,-3.80576 10.298288,-3.12737 2.230261,0.36019 4.162778,0.60431 5.138208,0.10266 0.227542,-0.11924 0.376767,-0.22613 0.492831,-0.33126" />
    <path
       inkscape:connector-curvature="0"
       id="path134"
       style="fill:#df002c;fill-opacity:1;fill-rule:nonzero;stroke:none;stroke-width:0.35277778"
       d="m 72.344479,200.98167 c -0.0085,-0.37324 -0.115006,-0.56162 -0.312561,-0.57609 -0.19297,-0.013 -0.298803,0.16263 -0.410633,0.40288 -0.32385,0.5715 -0.427214,0.98072 -2.170289,1.02764 0.361244,-1.44674 0.857955,-2.72415 2.183694,-3.435 0.311856,-0.15487 0.292806,-0.39793 -0.0067,-0.49671 -0.09278,-0.0243 -0.370416,-0.10125 -0.813858,-0.10125 -2.304697,0 -3.517194,1.83127 -4.396669,4.06824 h -0.0053 c -0.815268,-0.0131 -1.730727,0.0303 -2.415116,0.24729 -1.131711,0.35878 -1.688041,1.4217 -1.262944,2.34562 0.280811,0.51717 0.946503,0.57221 1.153583,0.49742 -0.0081,-0.19085 0.02434,-0.375 0.08855,-0.54681 0.211313,-0.56338 0.775758,-0.98107 1.437216,-1.14547 0.128764,-0.0321 0.312914,-0.0614 0.533047,-0.0868 -1.077383,3.2325 -1.795286,6.72465 -4.155016,6.72465 -0.765175,0 -1.086203,-0.60219 -1.056922,-1.03223 0.0092,-0.48859 0.471663,-0.86748 0.741186,-0.90064 -0.307975,-0.95038 -1.242131,-0.97578 -1.769534,-0.83467 -0.347838,0.0938 -1.012119,0.43286 -1.143,1.40088 -0.118533,0.8703 0.650875,2.30011 3.066345,2.4264 2.172405,0.10513 3.850216,-0.82267 5.081058,-2.29376 1.169106,-1.39664 1.933928,-3.31187 2.411236,-5.40526 0.01411,-0.0607 0.02752,-0.121 0.04127,-0.18133 0.498828,0.0233 0.894644,0.0699 1.063625,0.145 0.283633,0.12559 0.468136,0.35419 0.453319,0.7059 -0.0088,0.2974 0.03669,0.43886 0.212373,0.51153 0.18415,0.0603 0.3683,-0.0169 0.529166,-0.24553 0.844198,-1.22696 0.934156,-2.70651 0.922867,-3.22192" />
    <path
       inkscape:connector-curvature="0"
       id="path138"
       style="fill:#df002c;fill-opacity:1;fill-rule:nonzero;stroke:none;stroke-width:0.35277778"
       d="m 116.16836,200.81879 h -1.91135 c -0.47836,0 -0.86183,0.29669 -1.30704,1.35961 -0.27199,0.68826 -0.90981,2.05986 -1.56986,3.67911 -0.31856,0.73978 -0.84737,1.34303 -1.63865,1.34303 -0.82938,0 -1.13453,-0.8188 -0.74648,-1.82351 0.27622,-0.7172 0.42475,-1.0982 0.889,-2.22109 0.25259,-0.60854 0.68756,-1.3656 1.10878,-1.67393 0.35983,-0.26352 0.34996,-0.66322 -0.1965,-0.66322 h -1.89547 c -0.47837,0 -0.84561,0.41134 -1.13312,1.02905 -0.43639,0.86431 -0.79693,1.66335 -1.30669,3.06211 -0.133,0.36583 -0.21978,0.70344 -0.26811,1.01495 -0.46567,0.64311 -1.06786,1.2065 -1.5494,1.4485 -0.45297,0.22613 -1.68064,0 -1.06857,-1.37619 l 2.63243,-6.17537 c 0.30515,-0.70167 0.59055,-1.36737 1.16452,-1.69369 0.35454,-0.20108 0.4325,-0.64311 -0.084,-0.64311 h -2.05458 c -0.57291,0 -0.81774,0.34396 -1.14688,1.06116 -0.24483,0.63147 -0.883,2.02141 -1.54234,3.64066 -0.15523,-0.69991 -0.59267,-1.36348 -1.69016,-1.52647 -2.021062,-0.30162 -3.735207,1.58221 -4.280956,3.51402 -0.201789,0.71508 -0.258233,1.3582 -0.200731,1.9244 -0.444145,0.56833 -0.978958,1.05481 -1.41746,1.27459 -0.451909,0.22613 -1.679927,0 -1.067507,-1.37619 l 2.63243,-6.17537 c 0.305504,-0.70167 0.590195,-1.36737 1.16487,-1.69369 0.355248,-0.20108 0.432507,-0.64311 -0.08502,-0.64311 h -2.053165 c -0.573617,0 -0.81774,0.34396 -1.147585,1.06116 -0.244123,0.63147 -0.883357,2.02141 -1.542698,3.64066 -0.154869,-0.69991 -0.59196,-1.36348 -1.690862,-1.52647 -2.020713,-0.30162 -3.73592,1.58221 -4.280607,3.51402 -0.17004,0.60219 -0.236363,1.15323 -0.219429,1.6503 -0.732364,0.82797 -1.893711,1.77659 -2.848327,1.58855 -0.462139,-0.091 -0.751417,-0.45508 -0.861131,-1.06186 1.267883,-0.4452 2.056696,-1.38782 2.497314,-2.0447 0.65758,-0.97966 1.302457,-3.24626 -0.838906,-3.64631 -2.008011,-0.37535 -3.735563,1.58221 -4.281311,3.51402 -0.214489,0.75918 -0.264583,1.43757 -0.189441,2.02777 -1.400881,1.48907 -3.119967,1.67181 -2.337506,-0.502 0.359834,-1.00013 1.129947,-2.80812 1.479197,-3.58705 0.4064,-0.89323 0.04904,-1.35643 -0.790222,-1.35643 -0.7366,0 -1.321505,0.0557 -2.314928,0.0557 -1.213555,0 -1.679927,-0.1651 -2.008363,-0.64452 -0.06209,-0.0917 -0.130881,-0.17428 -0.198614,-0.24554 -0.285045,-0.29598 -0.643467,-0.18485 -0.591961,0.18768 0.130175,0.9659 0.269875,2.62184 -0.396875,4.02766 -1.543756,3.18312 -3.481211,2.75273 -4.113742,2.44969 -0.444147,1.28835 0.314678,2.26413 1.338086,2.3174 1.047397,0.0533 1.945217,-0.43674 2.7305,-1.43898 1.011767,-1.29117 1.687336,-3.71052 1.802694,-5.01756 h 1.815042 c 0,0 -0.861836,1.54305 -1.147233,3.3461 -0.327378,2.06904 0.918986,3.13408 2.297289,3.09703 1.138061,-0.0307 2.178402,-0.998 2.714625,-1.69474 0.500238,1.08973 1.544813,1.68945 2.707569,1.68945 1.863019,0 3.138665,-1.19415 3.732742,-1.96497 0.441325,1.26365 1.561041,1.96497 2.819048,1.96497 0.946854,0 1.655233,-0.46531 2.155825,-1.03081 0.53481,0.73765 1.24742,1.01247 1.976967,1.01247 1.25377,0 2.143476,-0.83044 2.816576,-1.74026 0.486834,1.13348 1.551869,1.7586 2.738615,1.7586 0.947551,0 1.656281,-0.46531 2.154761,-1.03081 0.53481,0.73765 1.24742,1.01247 1.97767,1.01247 1.20509,0 2.07398,-0.76765 2.73862,-1.63583 0.26211,0.95285 1.04069,1.47284 1.90852,1.63371 1.05622,0.19685 2.32587,-0.43074 2.96157,-1.08409 -1.20897,3.22228 -4.08763,2.85362 -10.07039,2.85362 H 69.665555 c -4.367741,0 -6.963833,2.35233 -7.336014,4.65208 -0.0515,0.33444 0.398287,0.54011 0.693914,0.20567 1.64465,-1.60584 4.425245,-1.48272 6.999464,-1.48272 h 31.631111 c 5.45817,0 9.04804,-0.2787 10.87296,-4.35116 0,0 2.35409,-5.60388 2.7298,-6.50311 0.3757,-0.89958 0.6858,-1.3656 1.10772,-1.67393 0.36018,-0.26352 0.34995,-0.66322 -0.19615,-0.66322 m -33.08455,3.49321 c 0.429331,-1.69334 1.26365,-2.47262 1.635478,-2.36397 0.35031,0.1009 0.38347,0.77964 -0.102305,1.66758 -0.445559,0.81633 -1.078795,1.29681 -1.687689,1.61396 0.02575,-0.29845 0.0635,-0.55351 0.154516,-0.91757 m 9.114366,-0.32668 c -0.187677,0.59902 -0.56797,1.56986 -0.874887,2.30082 -0.395816,0.93909 -1.144058,1.01247 -1.58115,0.82832 -0.435681,-0.18415 -0.813154,-1.06256 -0.09737,-2.94005 0.715082,-1.87678 1.49437,-2.1015 2.12302,-1.77623 0.40146,0.20884 0.660751,0.85478 0.430387,1.58714 m 9.687974,0 c -0.18803,0.59902 -0.56762,1.56986 -0.87524,2.30082 -0.39405,0.93909 -1.143696,1.01247 -1.579378,0.82832 -0.43674,-0.18415 -0.812448,-1.06256 -0.09772,-2.94005 0.715428,-1.87678 1.494358,-2.1015 2.121248,-1.77623 0.40252,0.20884 0.66075,0.85478 0.43109,1.58714" />
    <g
       id="g1955"
       style="fill:#ffffff"
       transform="translate(0.26458465,-0.26458157)">
      <path
         d="m 69.847446,211.69542 h 1.356078 v 0.35595 h -0.964142 v 0.37924 h 0.849842 v 0.35595 h -0.849842 v 0.68933 h -0.391936 z"
         style="fill:#ffffff;fill-opacity:1;fill-rule:nonzero;stroke:none;stroke-width:0.35277778"
         id="path142"
         inkscape:connector-curvature="0" />
      <path
         d="m 72.060244,211.69542 h 0.814564 c 0.225778,0 0.401461,0.0635 0.517878,0.18062 0.09984,0.0988 0.153105,0.23919 0.153105,0.4064 v 0.006 c 0,0.28716 -0.154869,0.46778 -0.381353,0.55174 l 0.434975,0.63606 h -0.457905 l -0.382058,-0.57009 h -0.307975 v 0.56974 h -0.391231 z m 0.788106,0.86501 c 0.191558,0 0.300566,-0.1023 0.300566,-0.25224 v -0.005 c 0,-0.16792 -0.117122,-0.25435 -0.307622,-0.25435 h -0.389819 v 0.51188 z"
         style="fill:#ffffff;fill-opacity:1;fill-rule:nonzero;stroke:none;stroke-width:0.35277778"
         id="path154"
         inkscape:connector-curvature="0" />
      <path
         d="m 74.273889,212.5907 v -0.005 c 0,-0.50659 0.40005,-0.9211 0.948972,-0.9211 0.549981,0 0.943681,0.40957 0.943681,0.91581 v 0.005 c 0,0.50624 -0.398992,0.92075 -0.94862,0.92075 -0.549627,0 -0.944033,-0.40957 -0.944033,-0.91581 m 1.483078,0 v -0.005 c 0,-0.3055 -0.223661,-0.55986 -0.539045,-0.55986 -0.316089,0 -0.533752,0.24871 -0.533752,0.55457 v 0.005 c 0,0.3048 0.223661,0.55951 0.538691,0.55951 0.315736,0 0.534106,-0.24977 0.534106,-0.55457"
         style="fill:#ffffff;fill-opacity:1;fill-rule:nonzero;stroke:none;stroke-width:0.35277778"
         id="path158"
         inkscape:connector-curvature="0" />
      <path
         d="m 76.916906,213.17861 0.979311,-1.14018 h -0.948619 v -0.3429 h 1.452386 v 0.29739 l -0.979664,1.13983 h 0.979664 v 0.3429 h -1.483078 z"
         style="fill:#ffffff;fill-opacity:1;fill-rule:nonzero;stroke:none;stroke-width:0.35277778"
         id="path162"
         inkscape:connector-curvature="0" />
      <path
         d="m 79.345215,211.69542 h 1.343025 v 0.34854 h -0.953911 v 0.3609 h 0.839611 v 0.34854 h -0.839611 v 0.3743 h 0.966611 v 0.34819 h -1.355725 z"
         style="fill:#ffffff;fill-opacity:1;fill-rule:nonzero;stroke:none;stroke-width:0.35277778"
         id="path166"
         inkscape:connector-curvature="0" />
      <path
         d="m 81.623235,211.69542 h 0.361597 l 0.833967,1.09573 v -1.09573 h 0.386997 v 1.78047 h -0.333375 l -0.862542,-1.13206 v 1.13206 h -0.386644 z"
         style="fill:#ffffff;fill-opacity:1;fill-rule:nonzero;stroke:none;stroke-width:0.35277778"
         id="path170"
         inkscape:connector-curvature="0" />
      <path
         d="m 85.464071,212.5907 v -0.005 c 0,-0.50659 0.382058,-0.9211 0.92851,-0.9211 0.33655,0 0.536927,0.11148 0.702382,0.27411 l -0.249415,0.28822 c -0.137231,-0.12489 -0.277283,-0.20109 -0.455083,-0.20109 -0.300212,0 -0.516819,0.24871 -0.516819,0.55457 v 0.005 c 0,0.3048 0.211312,0.55951 0.516819,0.55951 0.203552,0 0.328083,-0.0815 0.467783,-0.2085 l 0.24906,0.25154 c -0.182385,0.19649 -0.385937,0.3182 -0.729895,0.3182 -0.52423,0 -0.913342,-0.40428 -0.913342,-0.91581"
         style="fill:#ffffff;fill-opacity:1;fill-rule:nonzero;stroke:none;stroke-width:0.35277778"
         id="path182"
         inkscape:connector-curvature="0" />
      <path
         d="m 87.936372,212.71276 v -1.01741 h 0.391584 v 1.00718 c 0,0.29034 0.144991,0.44027 0.384881,0.44027 0.238477,0 0.383469,-0.145 0.383469,-0.42757 v -1.01988 h 0.391935 v 1.00436 c 0,0.53975 -0.303035,0.80433 -0.78105,0.80433 -0.478364,0 -0.770819,-0.26705 -0.770819,-0.79128"
         style="fill:#ffffff;fill-opacity:1;fill-rule:nonzero;stroke:none;stroke-width:0.35277778"
         id="path186"
         inkscape:connector-curvature="0" />
      <path
         d="m 90.279522,213.21674 0.230717,-0.27764 c 0.161218,0.1323 0.328438,0.21626 0.53199,0.21626 0.160866,0 0.256468,-0.0635 0.256468,-0.16793 v -0.005 c 0,-0.0998 -0.06033,-0.15028 -0.358068,-0.22684 -0.358775,-0.0921 -0.590198,-0.19085 -0.590198,-0.54398 v -0.006 c 0,-0.32279 0.259998,-0.53692 0.623358,-0.53692 0.259998,0 0.480838,0.0818 0.661458,0.22648 l -0.203906,0.29528 c -0.157689,-0.10972 -0.31256,-0.17534 -0.462489,-0.17534 -0.149932,0 -0.229307,0.0684 -0.229307,0.15523 v 0.005 c 0,0.11713 0.07655,0.15558 0.384175,0.23425 0.361244,0.0945 0.56515,0.22436 0.56515,0.53446 v 0.005 c 0,0.35348 -0.269523,0.55209 -0.654756,0.55209 -0.269169,0 -0.541512,-0.0942 -0.754592,-0.28504"
         style="fill:#ffffff;fill-opacity:1;fill-rule:nonzero;stroke:none;stroke-width:0.35277778"
         id="path190"
         inkscape:connector-curvature="0" />
      <path
         d="m 92.949978,212.05656 h -0.542573 v -0.36124 h 1.476375 v 0.36124 h -0.542222 v 1.41922 h -0.39158 z"
         style="fill:#ffffff;fill-opacity:1;fill-rule:nonzero;stroke:none;stroke-width:0.35277778"
         id="path194"
         inkscape:connector-curvature="0" />
      <path
         d="m 95.108697,211.68251 h 0.361596 l 0.764116,1.79317 h -0.41063 l -0.162986,-0.39935 h -0.753179 l -0.162632,0.39935 h -0.399343 z m 0.412396,1.0474 -0.236712,-0.57679 -0.236715,0.57679 z"
         style="fill:#ffffff;fill-opacity:1;fill-rule:nonzero;stroke:none;stroke-width:0.35277778"
         id="path198"
         inkscape:connector-curvature="0" />
      <path
         d="m 97.052258,211.69542 h 0.813855 c 0.22719,0 0.402521,0.0635 0.519996,0.18062 0.09878,0.0988 0.151694,0.23919 0.151694,0.4064 v 0.006 c 0,0.28716 -0.154517,0.46778 -0.381352,0.55174 l 0.435682,0.63606 H 98.13352 l -0.381,-0.56974 h -0.308682 v 0.56974 h -0.39158 z m 0.78881,0.86501 c 0.190852,0 0.300918,-0.1023 0.300918,-0.25224 v -0.005 c 0,-0.16792 -0.117123,-0.25435 -0.308678,-0.25435 h -0.38947 v 0.51188 z"
         style="fill:#ffffff;fill-opacity:1;fill-rule:nonzero;stroke:none;stroke-width:0.35277778"
         id="path210"
         inkscape:connector-curvature="0" />
      <path
         d="m 99.465678,211.69542 h 0.694272 c 0.55985,0 0.94615,0.38382 0.94615,0.88512 v 0.005 c 0,0.50094 -0.3863,0.89041 -0.94615,0.89041 h -0.694272 z m 0.391938,0.35313 v 1.07386 h 0.302334 c 0.32067,0 0.53728,-0.21626 0.53728,-0.53164 v -0.005 c 0,-0.31539 -0.21661,-0.53693 -0.53728,-0.53693 z"
         style="fill:#ffffff;fill-opacity:1;fill-rule:nonzero;stroke:none;stroke-width:0.35277778"
         id="path214"
         inkscape:connector-curvature="0" />
      <path
         d="m 103.85328,213.30307 c -0.14499,0.11924 -0.31573,0.19861 -0.52176,0.19861 -0.34078,0 -0.5976,-0.19861 -0.5976,-0.51399 v -0.005 c 0,-0.22684 0.12135,-0.38735 0.34572,-0.48895 -0.0868,-0.12171 -0.12488,-0.23389 -0.12488,-0.3556 v -0.006 c 0,-0.24377 0.19579,-0.46743 0.53939,-0.46743 0.30269,0 0.5013,0.19791 0.5013,0.44732 v 0.006 c 0,0.23847 -0.1524,0.37888 -0.37359,0.46566 l 0.23601,0.23601 c 0.0582,-0.0914 0.11712,-0.19544 0.17321,-0.30515 l 0.28681,0.15804 c -0.0677,0.12453 -0.14429,0.25718 -0.23354,0.37642 l 0.26212,0.26141 -0.28717,0.20178 z m -0.21907,-0.22366 -0.34114,-0.34608 c -0.11677,0.061 -0.16475,0.14782 -0.16475,0.2339 v 0.005 c 0,0.12453 0.10407,0.20849 0.24871,0.20849 0.0892,0 0.17604,-0.0381 0.25718,-0.1016 m 0.0205,-0.93874 v -0.006 c 0,-0.10124 -0.0688,-0.16474 -0.16793,-0.16474 -0.10442,0 -0.17286,0.0737 -0.17286,0.18062 v 0.005 c 0,0.0794 0.0303,0.13723 0.10372,0.2212 0.15558,-0.0579 0.23707,-0.12453 0.23707,-0.23601"
         style="fill:#ffffff;fill-opacity:1;fill-rule:nonzero;stroke:none;stroke-width:0.35277778"
         id="path218"
         inkscape:connector-curvature="0" />
    </g>
    <path
       inkscape:connector-curvature="0"
       id="path222"
       style="fill:#df002c;fill-opacity:1;fill-rule:nonzero;stroke:none;stroke-width:0.35277778"
       d="m 117.7705,200.41842 c -0.14957,-0.22684 0.0896,-0.47484 0.27446,-0.7553 0.3295,-0.42686 0.38065,-1.00541 0.20179,-1.33738 -0.15557,-0.38735 -0.64382,-0.59337 -1.04492,-0.50235 -0.11078,-0.98919 0.73307,-1.44286 1.19944,-1.49543 0.40076,-0.0448 1.15887,0.004 1.65629,0.73625 0.48366,0.71296 0.5454,2.3054 -1.69404,3.39654 -0.27516,0.10054 -0.48154,0.12771 -0.59302,-0.0423" />
    <path
       inkscape:connector-curvature="0"
       id="path226"
       style="fill:#df002c;fill-opacity:1;fill-rule:nonzero;stroke:none;stroke-width:0.35277778"
       d="m 120.12625,203.69414 c -0.39934,0.70344 -0.75424,1.85491 -1.57304,3.26637 -0.68544,1.18004 -1.31974,1.94804 -2.47085,1.94804 -0.98355,0 -1.96003,-1.00471 -1.46473,-2.27154 1.38994,0.6671 2.85503,-0.46002 3.66536,-2.09232 1.02693,-1.81222 1.24777,-3.0981 2.06727,-3.89537 0.14464,-0.14923 0.32456,-0.17498 0.42757,-0.13618 0.13123,0.0427 0.1778,0.15558 0.17639,0.37818 0.0152,0.49107 0.22084,0.84702 0.44415,1.09926 0.85019,0.96026 2.3823,2.49555 2.3622,4.24779 -0.0261,2.17347 -1.90465,2.9076 -3.00849,2.9076 -1.19415,0 -2.00766,-0.66746 -2.00766,-1.44992 0,-0.53164 0.3683,-0.95003 0.81351,-0.96485 0.38029,-0.0141 0.63147,0.23284 0.66286,0.50871 -0.33266,0.44873 0.35984,0.99765 0.93875,0.48507 0.86818,-0.76835 0.3048,-2.53224 -1.03329,-4.03084" />
    <path
       inkscape:connector-curvature="0"
       id="path294"
       style="fill:#df002c;fill-opacity:1;fill-rule:nonzero;stroke:none;stroke-width:0.35277778"
       d="m 117.47417,214.01028 c 4.36809,0 7.00334,-2.08386 7.43303,-4.53637 0.0709,-0.3743 -0.21414,-0.69532 -0.58209,-0.30057 -1.40864,1.51166 -3.53589,1.46192 -7.19702,1.46192 h 0.001 c 0,0 -3.9056,-0.007 -3.90842,0 -0.53975,1.31092 -1.95333,2.75801 -3.62409,3.37502 z" />
    <g
       id="g1939"
       style="fill:#df002c;fill-opacity:1"
       transform="translate(0.26458465,-0.26458157)">
      <path
         d="m 65.022998,219.3827 0.485069,-0.58102 c 0.335845,0.27728 0.687564,0.45402 1.113367,0.45402 0.335845,0 0.538692,-0.1337 0.539045,-0.35278 l -3.44e-4,-0.0102 c 0,-0.20778 -0.127706,-0.31397 -0.75177,-0.47413 -0.751064,-0.19121 -1.23578,-0.39935 -1.23578,-1.14053 v -0.0102 c 0,-0.67734 0.543983,-1.12466 1.30563,-1.12466 0.543631,0 1.007181,0.17039 1.385711,0.47414 l -0.426508,0.61841 c -0.330553,-0.22965 -0.656167,-0.36794 -0.970139,-0.36794 -0.313972,0 -0.479425,0.14358 -0.479072,0.32526 l -3.44e-4,0.0106 c -3.44e-4,0.24483 0.159456,0.32491 0.805039,0.49036 0.756708,0.19721 1.182511,0.46884 1.182511,1.11901 v 0.0109 c 0,0.74013 -0.56515,1.15605 -1.370189,1.15605 -0.564444,0 -1.134886,-0.19755 -1.582208,-0.59725"
         style="fill:#df002c;fill-opacity:1;fill-rule:nonzero;stroke:none;stroke-width:0.35277778"
         id="path230"
         inkscape:connector-curvature="0" />
      <path
         d="m 70.088426,216.95319 h -1.135239 v -0.75671 h 3.090686 v 0.75671 h -1.135239 v 2.97356 H 70.08772 Z"
         style="fill:#df002c;fill-opacity:1;fill-rule:nonzero;stroke:none;stroke-width:0.35277778"
         id="path234"
         inkscape:connector-curvature="0" />
      <path
         d="m 73.419035,216.19644 h 2.813403 l 3.44e-4,0.7299 h -1.998133 l -7.14e-4,0.75671 h 1.75895 l -3.44e-4,0.73025 h -1.758245 l -3.44e-4,0.78316 h 2.025297 v 0.73025 h -2.840567 z"
         style="fill:#df002c;fill-opacity:1;fill-rule:nonzero;stroke:none;stroke-width:0.35277778"
         id="path238"
         inkscape:connector-curvature="0" />
      <path
         d="m 79.014375,216.16977 h 0.756708 l 1.598084,3.75673 h -0.857956 l -0.341136,-0.83644 h -1.576917 l -0.341136,0.83644 h -0.836789 z m 0.8636,2.19569 -0.496006,-1.20968 -0.495652,1.20968 z"
         style="fill:#df002c;fill-opacity:1;fill-rule:nonzero;stroke:none;stroke-width:0.35277778"
         id="path242"
         inkscape:connector-curvature="0" />
      <path
         d="m 82.631867,216.19644 h 0.820561 v 1.63054 l 1.514123,-1.63054 h 0.990952 l -1.519061,1.58291 1.587853,2.14736 H 85.04028 l -1.156405,-1.5882 -0.431447,0.44767 v 1.14053 h -0.820914 z"
         style="fill:#df002c;fill-opacity:1;fill-rule:nonzero;stroke:none;stroke-width:0.35277778"
         id="path246"
         inkscape:connector-curvature="0" />
      <path
         d="m 87.375104,216.19644 h 1.732139 c 0.426154,0 0.761646,0.11712 0.974725,0.33055 0.170389,0.17039 0.255763,0.37818 0.256114,0.6343 v 0.0106 c -2.64e-4,0.42051 -0.224364,0.65511 -0.490712,0.80398 0.4318,0.16581 0.698148,0.41628 0.697794,0.91687 l 2.64e-4,0.0102 c -2.64e-4,0.68298 -0.554214,1.02376 -1.396296,1.02376 h -1.774825 z m 2.14771,1.10349 c -2.65e-4,-0.24553 -0.192262,-0.38418 -0.538337,-0.38418 h -0.80998 l -2.64e-4,0.78881 h 0.756356 c 0.362654,0 0.59196,-0.11712 0.59196,-0.3944 z m -0.400402,1.08655 h -0.948267 v 0.82021 h 0.975077 c 0.362657,0 0.580673,-0.1277 0.580673,-0.40499 v -0.0102 c 2.65e-4,-0.25047 -0.186618,-0.40499 -0.607483,-0.40499"
         style="fill:#df002c;fill-opacity:1;fill-rule:nonzero;stroke:none;stroke-width:0.35277778"
         id="path258"
         inkscape:connector-curvature="0" />
      <path
         d="m 91.910308,218.32768 v -2.13113 h 0.82056 v 2.10996 c 0,0.60749 0.303745,0.92252 0.804688,0.92252 0.500944,0 0.804685,-0.3041 0.804685,-0.89571 l 7.94e-4,-2.13677 h 0.819854 l 2.64e-4,2.10432 c -2.64e-4,1.12959 -0.634648,1.68381 -1.636537,1.68381 -1.001888,0 -1.614663,-0.55951 -1.614311,-1.657"
         style="fill:#df002c;fill-opacity:1;fill-rule:nonzero;stroke:none;stroke-width:0.35277778"
         id="path262"
         inkscape:connector-curvature="0" />
      <path
         d="m 96.849727,216.19644 h 1.705681 c 0.473427,0 0.841727,0.13335 1.086909,0.37853 0.20743,0.20779 0.319614,0.50059 0.319614,0.85196 v 0.0109 c 0,0.6022 -0.325612,0.98073 -0.799394,1.15676 l 0.911223,1.33209 h -0.9592 l -0.799393,-1.19415 h -0.645232 v 1.19415 h -0.820914 z m 1.651706,1.81187 c 0.399344,0 0.62865,-0.21308 0.62865,-0.52811 V 217.47 c 0,-0.35172 -0.244475,-0.53234 -0.644173,-0.53234 h -0.815623 l -2.64e-4,1.07068 z"
         style="fill:#df002c;fill-opacity:1;fill-rule:nonzero;stroke:none;stroke-width:0.35277778"
         id="path266"
         inkscape:connector-curvature="0" />
      <path
         d="m 101.22399,218.07174 v -0.0102 c 0,-1.06045 0.82621,-1.92864 1.95616,-1.92864 0.67169,0 1.07703,0.18063 1.46544,0.51118 l -0.51718,0.62371 c -0.28786,-0.23989 -0.54327,-0.37818 -0.97507,-0.37818 -0.59655,0 -1.07139,0.52705 -1.07139,1.16099 v 0.0109 c 0,0.68227 0.46919,1.18286 1.12995,1.18286 0.29845,0 0.5648,-0.0744 0.77293,-0.22436 v -0.53235 h -0.8262 l 2.6e-4,-0.70837 h 1.6196 v 1.61995 c -0.38417,0.32491 -0.91157,0.59091 -1.59349,0.59091 -1.16205,0 -1.9611,-0.81457 -1.9611,-1.91841"
         style="fill:#df002c;fill-opacity:1;fill-rule:nonzero;stroke:none;stroke-width:0.35277778"
         id="path270"
         inkscape:connector-curvature="0" />
      <path
         d="m 106.42052,216.19644 h 2.8134 v 0.7299 h -1.99813 l -8e-4,0.75671 h 1.75895 v 0.73025 h -1.75895 v 0.78316 h 2.02495 v 0.73025 h -2.84022 z"
         style="fill:#df002c;fill-opacity:1;fill-rule:nonzero;stroke:none;stroke-width:0.35277778"
         id="path274"
         inkscape:connector-curvature="0" />
      <path
         d="m 110.8435,216.19644 h 1.70498 c 0.47448,0 0.84173,0.13335 1.08761,0.37853 0.20744,0.20779 0.31927,0.50059 0.31891,0.85196 l 2.7e-4,0.0109 c 0,0.6022 -0.32491,0.98073 -0.79975,1.15676 l 0.91122,1.33209 h -0.95885 l -0.79904,-1.19415 h -0.64523 v 1.19415 h -0.82056 z m 1.65171,1.81187 c 0.3997,0 0.629,-0.21308 0.62865,-0.52811 l 2.6e-4,-0.0102 c 0,-0.35172 -0.24518,-0.53234 -0.64452,-0.53234 h -0.81598 v 1.07068 z"
         style="fill:#df002c;fill-opacity:1;fill-rule:nonzero;stroke:none;stroke-width:0.35277778"
         id="path286"
         inkscape:connector-curvature="0" />
      <path
         d="m 119.79372,216.01236 c -0.381,0 -0.69815,0.30268 -0.69815,0.69603 0,0.39158 0.31715,0.69603 0.69815,0.69603 0.38065,0 0.69815,-0.30445 0.69815,-0.69603 0,-0.39335 -0.3175,-0.69603 -0.69815,-0.69603 m -0.003,1.60972 c -0.51435,0 -0.92181,-0.40745 -0.92181,-0.91933 0,-0.51259 0.40746,-0.91934 0.92181,-0.91934 0.5147,0 0.92145,0.40675 0.92145,0.91934 0,0.51188 -0.40675,0.91933 -0.92145,0.91933 m 0.16933,-0.87383 0.23354,0.45685 -0.23354,0.008 -0.22613,-0.45684 -0.0656,-0.008 v 0.45685 h -0.21908 v -0.99025 h 0.41698 c 0.17921,0 0.34079,0.054 0.34079,0.26212 0,0.19508 -0.11501,0.2667 -0.24695,0.27128 m -0.14111,-0.35313 h -0.16087 v 0.17498 h 0.0907 c 0.10019,0 0.23706,0.0162 0.23706,-0.0794 0,-0.0893 -0.0783,-0.0956 -0.16686,-0.0956"
         style="fill:#df002c;fill-opacity:1;fill-rule:nonzero;stroke:none;stroke-width:0.35277778"
         id="path290"
         inkscape:connector-curvature="0" />
      <path
         d="m 115.2927,219.3827 0.48542,-0.58102 c 0.33585,0.27728 0.68686,0.45402 1.11302,0.45402 0.33619,0 0.53869,-0.1337 0.53904,-0.35278 v -0.0102 c 0,-0.20778 -0.1277,-0.31397 -0.75106,-0.47413 -0.75177,-0.19121 -1.23684,-0.39935 -1.23684,-1.14053 v -0.0102 c 0,-0.67734 0.54363,-1.12466 1.30563,-1.12466 0.54398,0 1.00718,0.17039 1.38536,0.47414 l -0.42545,0.61841 c -0.33055,-0.22965 -0.65617,-0.36794 -0.97049,-0.36794 -0.31468,0 -0.47978,0.14358 -0.47943,0.32526 v 0.0106 c -2.6e-4,0.24483 0.15981,0.32491 0.80363,0.49036 0.75741,0.19721 1.18392,0.46884 1.18392,1.11901 l -2.6e-4,0.0109 c 0,0.74013 -0.56515,1.15605 -1.36914,1.15605 -0.5655,0 -1.13488,-0.19755 -1.58326,-0.59725"
         style="fill:#df002c;fill-opacity:1;fill-rule:nonzero;stroke:none;stroke-width:0.35277778"
         id="path298"
         inkscape:connector-curvature="0" />
    </g>
  </g>
</svg>
