<?xml version="1.0" encoding="UTF-8" standalone="no"?>
<!-- Created with Inkscape (http://www.inkscape.org/) -->

<svg
   xmlns:dc="http://purl.org/dc/elements/1.1/"
   xmlns:cc="http://creativecommons.org/ns#"
   xmlns:rdf="http://www.w3.org/1999/02/22-rdf-syntax-ns#"
   xmlns:svg="http://www.w3.org/2000/svg"
   xmlns="http://www.w3.org/2000/svg"
   xmlns:sodipodi="http://sodipodi.sourceforge.net/DTD/sodipodi-0.dtd"
   xmlns:inkscape="http://www.inkscape.org/namespaces/inkscape"
   width="247.87866"
   height="130.39467"
   viewBox="0 0 65.584559 34.500251"
   version="1.1"
   id="svg26544"
   inkscape:version="0.92.0 r15299"
   sodipodi:docname="hunt brothers pizza.svg">
  <defs
     id="defs26538">
    <clipPath
       id="clipPath26217"
       clipPathUnits="userSpaceOnUse">
      <path
         inkscape:connector-curvature="0"
         id="path26215"
         d="M 0,0 H 648 V 432 H 0 Z" />
    </clipPath>
    <clipPath
       id="clipPath26195"
       clipPathUnits="userSpaceOnUse">
      <path
         inkscape:connector-curvature="0"
         id="path26193"
         d="M 0,0 H 648 V 432 H 0 Z" />
    </clipPath>
    <clipPath
       id="clipPath26167"
       clipPathUnits="userSpaceOnUse">
      <path
         inkscape:connector-curvature="0"
         id="path26165"
         d="M 0,0 H 648 V 432 H 0 Z" />
    </clipPath>
    <clipPath
       id="clipPath26147"
       clipPathUnits="userSpaceOnUse">
      <path
         inkscape:connector-curvature="0"
         id="path26145"
         d="M 0,0 H 648 V 432 H 0 Z" />
    </clipPath>
    <clipPath
       id="clipPath26217-8"
       clipPathUnits="userSpaceOnUse">
      <path
         inkscape:connector-curvature="0"
         id="path26215-6"
         d="M 0,0 H 648 V 432 H 0 Z" />
    </clipPath>
    <clipPath
       id="clipPath26195-8"
       clipPathUnits="userSpaceOnUse">
      <path
         inkscape:connector-curvature="0"
         id="path26193-0"
         d="M 0,0 H 648 V 432 H 0 Z" />
    </clipPath>
    <clipPath
       id="clipPath26167-7"
       clipPathUnits="userSpaceOnUse">
      <path
         inkscape:connector-curvature="0"
         id="path26165-3"
         d="M 0,0 H 648 V 432 H 0 Z" />
    </clipPath>
    <clipPath
       id="clipPath26147-3"
       clipPathUnits="userSpaceOnUse">
      <path
         inkscape:connector-curvature="0"
         id="path26145-0"
         d="M 0,0 H 648 V 432 H 0 Z" />
    </clipPath>
  </defs>
  <sodipodi:namedview
     id="base"
     pagecolor="#ffffff"
     bordercolor="#666666"
     borderopacity="1.0"
     inkscape:pageopacity="0.0"
     inkscape:pageshadow="2"
     inkscape:zoom="3.2617715"
     inkscape:cx="140.42037"
     inkscape:cy="138.77833"
     inkscape:document-units="mm"
     inkscape:current-layer="layer1"
     showgrid="false"
     fit-margin-top="0"
     fit-margin-left="0"
     fit-margin-right="0"
     fit-margin-bottom="0"
     units="px"
     inkscape:window-width="1280"
     inkscape:window-height="744"
     inkscape:window-x="-4"
     inkscape:window-y="-4"
     inkscape:window-maximized="1" />
  <metadata
     id="metadata26541">
    <rdf:RDF>
      <cc:Work
         rdf:about="">
        <dc:format>image/svg+xml</dc:format>
        <dc:type
           rdf:resource="http://purl.org/dc/dcmitype/StillImage" />
        <dc:title></dc:title>
      </cc:Work>
    </rdf:RDF>
  </metadata>
  <g
     inkscape:label="Layer 1"
     inkscape:groupmode="layer"
     id="layer1"
     transform="translate(-59.609016,-353.64676)">
    <g
       id="g26944"
       transform="translate(-19.446714,8.5771114)">
      <g
         transform="matrix(0.35277777,0,0,-0.35277777,52.173641,408.17383)"
         id="g26141">
        <g
           clip-path="url(#clipPath26147-3)"
           id="g26143">
          <g
             transform="translate(90.8552,81.832)"
             id="g26149">
            <path
               inkscape:connector-curvature="0"
               id="path26151"
               style="fill:#ffffff;fill-opacity:1;fill-rule:nonzero;stroke:none"
               d="m 0,0 v 27.282 c -8.384,3.049 -13.904,10.903 -13.904,20.859 0,9.963 5.52,17.817 13.904,20.864 v 27.291 h 156.268 l 0.011,-27.3 c 8.485,-3.09 14.226,-11.036 14.226,-20.855 0,-9.812 -5.741,-17.76 -14.226,-20.849 L 156.268,0 Z" />
          </g>
          <g
             transform="translate(243.7338,113.8412)"
             id="g26153">
            <path
               inkscape:connector-curvature="0"
               id="path26155"
               style="fill:#007f46;fill-opacity:1;fill-rule:nonzero;stroke:none"
               d="m 0,0 c 1.131,0 2.033,-0.915 2.033,-2.065 0,-1.169 -0.902,-2.08 -2.042,-2.08 -1.129,0 -2.05,0.911 -2.05,2.08 0,1.15 0.921,2.065 2.05,2.065 z m -0.009,-0.317 c -0.907,0 -1.657,-0.786 -1.657,-1.748 0,-0.984 0.75,-1.76 1.666,-1.76 0.921,-0.009 1.655,0.776 1.655,1.751 0,0.971 -0.734,1.757 -1.655,1.757 z m -0.385,-2.958 h -0.37 v 2.316 c 0.194,0.026 0.381,0.054 0.652,0.054 0.352,0 0.582,-0.072 0.72,-0.176 0.14,-0.104 0.212,-0.258 0.212,-0.478 0,-0.305 -0.201,-0.487 -0.451,-0.562 V -2.14 c 0.201,-0.035 0.34,-0.217 0.388,-0.563 0.054,-0.355 0.11,-0.493 0.145,-0.572 H 0.519 C 0.46,-3.196 0.407,-2.986 0.36,-2.684 0.306,-2.389 0.157,-2.279 -0.135,-2.279 h -0.259 z m 0,1.282 h 0.264 c 0.307,0 0.561,0.107 0.561,0.393 0,0.208 -0.142,0.406 -0.561,0.406 -0.117,0 -0.202,-0.01 -0.264,-0.019 z" />
          </g>
        </g>
      </g>
      <path
         inkscape:connector-curvature="0"
         id="path26157"
         style="fill:#007f46;fill-opacity:1;fill-rule:nonzero;stroke:none;stroke-width:0.35277778"
         d="M 136.54609,376.61786 H 86.994571 v -28.34958 h 49.551519 z" />
      <path
         inkscape:connector-curvature="0"
         id="path26159"
         style="fill:#ed192d;fill-opacity:1;fill-rule:nonzero;stroke:none;stroke-width:0.35277778"
         d="M 134.9727,375.09351 H 88.499875 V 349.65047 H 134.9727 Z" />
      <g
         transform="matrix(0.35277777,0,0,-0.35277777,52.173641,408.17383)"
         id="g26161">
        <g
           clip-path="url(#clipPath26167-7)"
           id="g26163">
          <g
             transform="translate(253.1967,130.1551)"
             id="g26169">
            <path
               inkscape:connector-curvature="0"
               id="path26171"
               style="fill:#007f46;fill-opacity:1;fill-rule:nonzero;stroke:none"
               d="m 0,0 c 0,-7.854 -7.103,-14.221 -15.873,-14.221 h -136.914 c -8.766,0 -15.875,6.367 -15.875,14.221 0,7.853 7.109,14.223 15.875,14.223 H -15.873 C -7.103,14.223 0,7.853 0,0" />
          </g>
        </g>
      </g>
      <g
         transform="matrix(0.35277777,0,0,-0.35277777,101.28687,357.78072)"
         id="g26173">
        <path
           inkscape:connector-curvature="0"
           id="path26175"
           style="fill:#ffffff;fill-opacity:1;fill-rule:nonzero;stroke:none"
           d="M 0,0 V 6.221 H -4.143 V 0 h -6.618 v 19.85 h 6.618 V 8.687 H 0 V 19.85 H 6.615 V 0 Z" />
      </g>
      <g
         transform="matrix(0.35277777,0,0,-0.35277777,105.00042,357.78072)"
         id="g26177">
        <path
           inkscape:connector-curvature="0"
           id="path26179"
           style="fill:#ffffff;fill-opacity:1;fill-rule:nonzero;stroke:none"
           d="M 0,0 V 19.85 H 6.62 V 2.475 h 4.143 V 19.85 h 6.616 V 0 Z" />
      </g>
      <g
         transform="matrix(0.35277777,0,0,-0.35277777,116.45028,357.78072)"
         id="g26181">
        <path
           inkscape:connector-curvature="0"
           id="path26183"
           style="fill:#ffffff;fill-opacity:1;fill-rule:nonzero;stroke:none"
           d="M 0,0 -4.546,12.459 V 0 h -6.619 v 19.85 h 6.619 L 0,7.365 V 19.85 H 6.617 V 0 Z" />
      </g>
      <g
         transform="matrix(0.35277777,0,0,-0.35277777,124.10196,351.66017)"
         id="g26185">
        <path
           inkscape:connector-curvature="0"
           id="path26187"
           style="fill:#ffffff;fill-opacity:1;fill-rule:nonzero;stroke:none"
           d="M 0,0 V -17.35 H -6.616 V 0 h -4.949 V 2.501 H 4.955 V 0 Z" />
      </g>
      <g
         transform="matrix(0.35277777,0,0,-0.35277777,52.173641,408.17383)"
         id="g26189">
        <g
           clip-path="url(#clipPath26195-8)"
           id="g26191">
          <path
             inkscape:connector-curvature="0"
             id="path26197"
             style="fill:#ffffff;fill-opacity:1;fill-rule:nonzero;stroke:none"
             d="m 105.459,131.151 h -3.771 v 5.629 h 3.771 z m 6.024,-7.328 v 4.5 c 0,0.707 -0.524,1.389 -1.152,1.697 0.628,0.292 1.152,0.974 1.152,1.681 v 4.533 c 0,1.702 -1.125,2.825 -2.83,2.825 H 95.664 v -18.068 h 12.989 c 1.705,0 2.83,1.122 2.83,2.832 m -6.024,-0.582 h -3.771 v 5.657 h 3.771 z" />
          <path
             inkscape:connector-curvature="0"
             id="path26199"
             style="fill:#ffffff;fill-opacity:1;fill-rule:nonzero;stroke:none"
             d="m 124.815,128.898 h -3.747 v 7.883 h 3.747 z m 6.051,-7.907 -2.096,5.657 h 2.069 v 9.586 c 0,1.702 -1.1,2.825 -2.802,2.825 h -12.991 v -18.068 h 6.022 v 5.657 h 1.702 l 2.073,-5.657 z" />
          <path
             inkscape:connector-curvature="0"
             id="path26201"
             style="fill:#ffffff;fill-opacity:1;fill-rule:nonzero;stroke:none"
             d="m 144.226,123.241 h -3.775 v 13.54 h 3.775 z m 6.021,-2.25 v 15.243 c 0,1.702 -1.125,2.825 -2.828,2.825 h -10.162 c -1.701,0 -2.83,-1.123 -2.83,-2.825 v -15.243 z" />
        </g>
      </g>
      <g
         transform="matrix(0.35277777,0,0,-0.35277777,110.019,359.92057)"
         id="g26203">
        <path
           inkscape:connector-curvature="0"
           id="path26205"
           style="fill:#ffffff;fill-opacity:1;fill-rule:nonzero;stroke:none"
           d="M 0,0 V -15.79 H -6.025 V 0 h -4.503 V 2.279 H 4.502 V 0 Z" />
      </g>
      <g
         transform="matrix(0.35277777,0,0,-0.35277777,116.19138,365.49093)"
         id="g26207">
        <path
           inkscape:connector-curvature="0"
           id="path26209"
           style="fill:#ffffff;fill-opacity:1;fill-rule:nonzero;stroke:none"
           d="M 0,0 V 5.657 H -3.768 V 0 h -6.03 v 18.069 h 6.03 V 7.907 H 0 V 18.069 H 6.025 V 0 Z" />
      </g>
      <g
         transform="matrix(0.35277777,0,0,-0.35277777,52.173641,408.17383)"
         id="g26211">
        <g
           clip-path="url(#clipPath26217-8)"
           id="g26213">
          <g
             transform="translate(191.053,120.9909)"
             id="g26219">
            <path
               inkscape:connector-curvature="0"
               id="path26221"
               style="fill:#ffffff;fill-opacity:1;fill-rule:nonzero;stroke:none"
               d="m 0,0 v 15.243 c 0,1.702 1.127,2.826 2.827,2.826 h 9.981 V 15.79 h -6.78 v -5.629 h 5.261 V 7.907 H 6.028 V 2.25 h 6.78 V 0 Z" />
          </g>
          <path
             inkscape:connector-curvature="0"
             id="path26223"
             style="fill:#ffffff;fill-opacity:1;fill-rule:nonzero;stroke:none"
             d="m 216.796,128.898 h -3.74 v 7.883 h 3.74 z m 6.06,-7.907 -2.097,5.657 h 2.066 v 9.586 c 0,1.702 -1.103,2.825 -2.805,2.825 h -12.988 v -18.068 h 6.024 v 5.657 h 1.703 l 2.066,-5.657 z" />
          <g
             transform="translate(226.4139,120.9909)"
             id="g26225">
            <path
               inkscape:connector-curvature="0"
               id="path26227"
               style="fill:#ffffff;fill-opacity:1;fill-rule:nonzero;stroke:none"
               d="M 0,0 V 5.261 H 6.025 V 2.25 H 9.798 V 7.907 H 0 v 7.336 c 0,1.702 1.127,2.826 2.829,2.826 h 10.165 c 1.697,0 2.83,-1.124 2.83,-2.826 V 12.81 H 9.798 v 2.98 H 6.025 v -5.629 h 9.799 V 0 Z" />
          </g>
          <path
             inkscape:connector-curvature="0"
             id="path26229"
             style="fill:#ffffff;fill-opacity:1;fill-rule:nonzero;stroke:none"
             d="m 137.976,106.374 h -4.145 v 8.658 h 4.145 z m 6.617,-2.48 v 10.529 c 0,1.873 -1.237,3.108 -3.106,3.108 H 127.214 V 97.684 h 6.618 v 6.21 z" />
        </g>
      </g>
      <path
         inkscape:connector-curvature="0"
         id="path26231"
         style="fill:#ffffff;fill-opacity:1;fill-rule:nonzero;stroke:none;stroke-width:0.35277778"
         d="m 104.55303,366.71151 h 2.33503 v 7.00122 h -2.33503 z" />
      <g
         transform="matrix(0.35277777,0,0,-0.35277777,108.12642,373.71302)"
         id="g26233">
        <path
           inkscape:connector-curvature="0"
           id="path26235"
           style="fill:#ffffff;fill-opacity:1;fill-rule:nonzero;stroke:none"
           d="M 0,0 V 2.47 L 7.424,17.348 H 0 v 2.498 H 14.04 V 17.348 L 6.615,2.47 H 14.04 V 0 Z" />
      </g>
      <g
         transform="matrix(0.35277777,0,0,-0.35277777,114.17518,373.71302)"
         id="g26237">
        <path
           inkscape:connector-curvature="0"
           id="path26239"
           style="fill:#ffffff;fill-opacity:1;fill-rule:nonzero;stroke:none"
           d="M 0,0 V 2.47 L 7.425,17.348 H 0 v 2.498 H 14.037 V 17.348 L 6.619,2.47 h 7.418 V 0 Z" />
      </g>
      <path
         inkscape:connector-curvature="0"
         id="path26249"
         style="fill:#ffffff;fill-opacity:1;fill-rule:nonzero;stroke:none;stroke-width:0.35277778"
         d="m 124.16253,370.64745 h -1.4612 v -3.05435 h 1.4612 z m 2.33469,3.06564 v -5.90515 c 0,-0.66075 -0.43604,-1.09643 -1.09679,-1.09643 h -3.9377 c -0.66076,0 -1.09538,0.43568 -1.09538,1.09643 v 5.90515 h 2.33363 v -2.19075 h 1.46155 v 2.19075 z" />
      <g
         transform="matrix(0.35277777,0,0,-0.35277777,138.15751,368.01319)"
         id="g26251">
        <path
           inkscape:connector-curvature="0"
           id="path26253"
           style="fill:#007f46;fill-opacity:1;fill-rule:nonzero;stroke:none"
           d="m 0,0 c 1.131,0 2.033,-0.915 2.033,-2.065 0,-1.169 -0.902,-2.08 -2.042,-2.08 -1.129,0 -2.05,0.911 -2.05,2.08 0,1.15 0.921,2.065 2.05,2.065 z m -0.009,-0.317 c -0.907,0 -1.657,-0.786 -1.657,-1.748 0,-0.984 0.75,-1.76 1.666,-1.76 0.921,-0.009 1.655,0.776 1.655,1.751 0,0.971 -0.734,1.757 -1.655,1.757 z m -0.385,-2.958 h -0.37 v 2.316 c 0.194,0.026 0.381,0.054 0.652,0.054 0.352,0 0.582,-0.072 0.72,-0.176 0.14,-0.104 0.212,-0.258 0.212,-0.478 0,-0.305 -0.201,-0.487 -0.451,-0.562 V -2.14 c 0.201,-0.035 0.34,-0.217 0.388,-0.563 0.054,-0.355 0.11,-0.493 0.145,-0.572 H 0.519 C 0.46,-3.196 0.407,-2.986 0.36,-2.684 0.306,-2.389 0.157,-2.279 -0.135,-2.279 h -0.259 z m 0,1.282 h 0.264 c 0.307,0 0.561,0.107 0.561,0.393 0,0.208 -0.142,0.406 -0.561,0.406 -0.117,0 -0.202,-0.01 -0.264,-0.019 z" />
      </g>
    </g>
  </g>
</svg>
