<?xml version="1.0" encoding="UTF-8"?>
<!DOCTYPE svg PUBLIC "-//W3C//DTD SVG 1.1//EN" "http://www.w3.org/Graphics/SVG/1.1/DTD/svg11.dtd">
<svg xmlns="http://www.w3.org/2000/svg" version="1.1" width="1465px" height="2047px" style="shape-rendering:geometricPrecision; text-rendering:geometricPrecision; image-rendering:optimizeQuality; fill-rule:evenodd; clip-rule:evenodd" xmlns:xlink="http://www.w3.org/1999/xlink">
<g><path style="opacity:0.997" fill="#fca405" d="M 1329.5,-0.5 C 1338.83,-0.5 1348.17,-0.5 1357.5,-0.5C 1358.31,0.836628 1359.48,1.83663 1361,2.5C 1361.33,3.83333 1361.67,5.16667 1362,6.5C 1362.67,22.1667 1362.67,37.8333 1362,53.5C 1361.87,56.0027 1360.87,58.0027 1359,59.5C 1358.65,70.1875 1357.98,80.8542 1357,91.5C 1355.42,92.3757 1354.42,93.7091 1354,95.5C 1353.67,101.833 1353.33,108.167 1353,114.5C 1352,115.167 1351,115.833 1350,116.5C 1349.75,125.866 1349.25,135.2 1348.5,144.5C 1346.61,144.297 1345.11,144.963 1344,146.5C 1343.67,154.167 1343.33,161.833 1343,169.5C 1342.58,171.291 1341.58,172.624 1340,173.5C 1339.33,180.833 1338.67,188.167 1338,195.5C 1336.42,196.376 1335.42,197.709 1335,199.5C 1334.67,207.5 1334.33,215.5 1334,223.5C 1333.33,224.833 1332.33,225.833 1331,226.5C 1330.67,233.5 1330.33,240.5 1330,247.5C 1329.01,251.313 1327.68,254.98 1326,258.5C 1325.67,264.167 1325.33,269.833 1325,275.5C 1323.67,276.167 1322.33,276.833 1321,277.5C 1319.98,284.799 1319.31,292.132 1319,299.5C 1317.67,300.167 1316.67,301.167 1316,302.5C 1315.67,310.833 1315.33,319.167 1315,327.5C 1314.33,328.833 1313.33,329.833 1312,330.5C 1311.67,336.167 1311.33,341.833 1311,347.5C 1309.32,351.02 1307.99,354.687 1307,358.5C 1306.67,365.5 1306.33,372.5 1306,379.5C 1304.09,381.028 1302.59,382.862 1301.5,385C 1300.77,391.476 1300.27,397.976 1300,404.5C 1298.42,405.376 1297.42,406.709 1297,408.5C 1296.67,416.167 1296.33,423.833 1296,431.5C 1295.33,432.833 1294.33,433.833 1293,434.5C 1292.67,440.167 1292.33,445.833 1292,451.5C 1291.43,454.933 1290.1,457.933 1288,460.5C 1287.67,466.833 1287.33,473.167 1287,479.5C 1285.64,480.38 1284.14,480.714 1282.5,480.5C 1281.8,488.475 1281.3,496.475 1281,504.5C 1279.67,505.167 1278.67,506.167 1278,507.5C 1277.67,515.167 1277.33,522.833 1277,530.5C 1276.63,531.91 1275.8,532.91 1274.5,533.5C 1273.75,540.846 1272.92,548.18 1272,555.5C 1270.25,556.67 1269.25,558.337 1269,560.5C 1268.67,568.167 1268.33,575.833 1268,583.5C 1266.85,584.743 1265.51,585.743 1264,586.5C 1262.82,593.771 1262.15,601.104 1262,608.5C 1260.67,609.167 1259.67,610.167 1259,611.5C 1258.67,617.833 1258.33,624.167 1258,630.5C 1257.33,631.833 1256.33,632.833 1255,633.5C 1254.58,642.186 1253.92,650.853 1253,659.5C 1251.42,660.376 1250.42,661.709 1250,663.5C 1249.67,670.167 1249.33,676.833 1249,683.5C 1248.33,684.833 1247.33,685.833 1246,686.5C 1245.33,689.833 1245.33,693.167 1246,696.5C 1248.76,697.499 1250.09,699.499 1250,702.5C 1251.21,703.071 1252.37,703.738 1253.5,704.5C 1255.76,706.796 1257.76,709.296 1259.5,712C 1260.45,712.483 1261.45,712.649 1262.5,712.5C 1262.43,715.766 1264.1,717.266 1267.5,717C 1268.23,718.399 1268.73,719.899 1269,721.5C 1272.3,724.299 1275.47,727.299 1278.5,730.5C 1281.11,731.23 1283.78,731.73 1286.5,732C 1290.75,735.972 1294.41,740.472 1297.5,745.5C 1301.78,748.747 1305.95,752.081 1310,755.5C 1311.13,758.377 1311.79,761.377 1312,764.5C 1313.01,765.337 1314.18,765.67 1315.5,765.5C 1315.35,766.552 1315.52,767.552 1316,768.5C 1319.84,772.18 1324.01,775.513 1328.5,778.5C 1329.78,780.179 1330.78,782.013 1331.5,784C 1332.45,784.483 1333.45,784.649 1334.5,784.5C 1334.35,785.552 1334.52,786.552 1335,787.5C 1341.3,790.48 1344.3,795.48 1344,802.5C 1345.4,803.227 1346.9,803.727 1348.5,804C 1349.34,805.011 1349.67,806.178 1349.5,807.5C 1350.55,807.351 1351.55,807.517 1352.5,808C 1353.31,809.972 1354.64,811.472 1356.5,812.5C 1358.05,814.933 1358.72,817.6 1358.5,820.5C 1359.68,820.281 1360.68,820.614 1361.5,821.5C 1361.84,825.171 1363.84,827.171 1367.5,827.5C 1368.21,829.776 1368.71,832.109 1369,834.5C 1370,835.167 1371,835.833 1372,836.5C 1372.33,838.833 1372.67,841.167 1373,843.5C 1376.02,847.668 1378.68,852.001 1381,856.5C 1381.33,861.833 1381.67,867.167 1382,872.5C 1383.36,873.38 1384.86,873.714 1386.5,873.5C 1387.56,880.798 1387.73,888.131 1387,895.5C 1385.49,897.008 1383.83,898.341 1382,899.5C 1381.67,903.167 1381.33,906.833 1381,910.5C 1380.33,911.833 1379.33,912.833 1378,913.5C 1378.13,917.582 1376.46,920.582 1373,922.5C 1373.27,925.901 1371.77,927.567 1368.5,927.5C 1368.67,928.822 1368.34,929.989 1367.5,931C 1365.9,931.273 1364.4,931.773 1363,932.5C 1362.71,934.891 1362.21,937.224 1361.5,939.5C 1360.68,940.386 1359.68,940.719 1358.5,940.5C 1358.51,942.308 1358.01,943.975 1357,945.5C 1354.67,947.5 1352.33,949.5 1350,951.5C 1349.71,953.891 1349.21,956.224 1348.5,958.5C 1344.84,958.829 1342.84,960.829 1342.5,964.5C 1338.73,967.835 1335.06,971.168 1331.5,974.5C 1330.69,976.423 1330.19,978.423 1330,980.5C 1327.56,982.274 1325.89,984.608 1325,987.5C 1321.93,988.239 1319.76,990.072 1318.5,993C 1317.55,993.483 1316.55,993.649 1315.5,993.5C 1315.83,996.5 1314.5,997.833 1311.5,997.5C 1311.65,998.552 1311.48,999.552 1311,1000.5C 1308,1003.17 1305,1005.83 1302,1008.5C 1300.96,1010.71 1300.29,1013.05 1300,1015.5C 1297.44,1016.22 1296.28,1017.89 1296.5,1020.5C 1293.34,1020.53 1291.68,1022.2 1291.5,1025.5C 1288.83,1026.17 1287.17,1027.83 1286.5,1030.5C 1283.2,1030.68 1281.53,1032.34 1281.5,1035.5C 1280.45,1035.35 1279.45,1035.52 1278.5,1036C 1276.25,1038.64 1274.25,1041.47 1272.5,1044.5C 1269.83,1045.17 1268.17,1046.83 1267.5,1049.5C 1264.2,1049.68 1262.53,1051.34 1262.5,1054.5C 1261.18,1054.33 1260.01,1054.66 1259,1055.5C 1258.67,1058.17 1258.33,1060.83 1258,1063.5C 1252.93,1067.45 1248.43,1071.95 1244.5,1077C 1242.98,1078.01 1241.31,1078.51 1239.5,1078.5C 1239.83,1081.5 1238.5,1082.83 1235.5,1082.5C 1235.51,1084.31 1235.01,1085.98 1234,1087.5C 1231.17,1090.33 1228.33,1093.17 1225.5,1096C 1223.98,1097.01 1222.31,1097.51 1220.5,1097.5C 1220.34,1100.19 1220.5,1102.85 1221,1105.5C 1225.7,1106.55 1227.7,1109.55 1227,1114.5C 1228,1115.17 1229,1115.83 1230,1116.5C 1230.33,1118.83 1230.67,1121.17 1231,1123.5C 1233.52,1127.9 1236.19,1132.23 1239,1136.5C 1239.33,1140.17 1239.67,1143.83 1240,1147.5C 1244.71,1148.6 1246.71,1151.6 1246,1156.5C 1247,1157.17 1248,1157.83 1249,1158.5C 1249.33,1162.5 1249.67,1166.5 1250,1170.5C 1250.71,1171.97 1251.88,1172.64 1253.5,1172.5C 1253.35,1176.95 1254.85,1180.61 1258,1183.5C 1258.33,1187.17 1258.67,1190.83 1259,1194.5C 1260,1195.17 1261,1195.83 1262,1196.5C 1262.3,1202.53 1262.8,1208.53 1263.5,1214.5C 1265.14,1214.29 1266.64,1214.62 1268,1215.5C 1268.33,1219.17 1268.67,1222.83 1269,1226.5C 1269.42,1228.29 1270.42,1229.62 1272,1230.5C 1272.92,1237.82 1273.75,1245.15 1274.5,1252.5C 1275.48,1252.98 1276.31,1253.64 1277,1254.5C 1277.33,1259.83 1277.67,1265.17 1278,1270.5C 1279.33,1271.17 1280.33,1272.17 1281,1273.5C 1281.25,1281.36 1281.75,1289.19 1282.5,1297C 1283.59,1299.14 1285.09,1300.97 1287,1302.5C 1287.33,1313.5 1287.67,1324.5 1288,1335.5C 1288.16,1339.13 1289.16,1342.47 1291,1345.5C 1292.99,1385.5 1292.99,1425.5 1291,1465.5C 1289.13,1467.81 1288.13,1470.47 1288,1473.5C 1287.67,1483.17 1287.33,1492.83 1287,1502.5C 1285.95,1504.11 1284.45,1504.77 1282.5,1504.5C 1281.81,1513.81 1281.31,1523.15 1281,1532.5C 1279.67,1533.17 1278.67,1534.17 1278,1535.5C 1277.67,1540.5 1277.33,1545.5 1277,1550.5C 1276.33,1551.83 1275.33,1552.83 1274,1553.5C 1273.69,1560.87 1273.02,1568.2 1272,1575.5C 1270.67,1576.17 1269.67,1577.17 1269,1578.5C 1268.67,1582.17 1268.33,1585.83 1268,1589.5C 1265.6,1589.96 1263.94,1591.29 1263,1593.5C 1262.67,1598.5 1262.33,1603.5 1262,1608.5C 1261,1609.17 1260,1609.83 1259,1610.5C 1258.67,1614.17 1258.33,1617.83 1258,1621.5C 1257,1622.17 1256,1622.83 1255,1623.5C 1254.83,1628.25 1253.16,1632.25 1250,1635.5C 1249.67,1639.17 1249.33,1642.83 1249,1646.5C 1248,1647.17 1247,1647.83 1246,1648.5C 1245.67,1651.83 1245.33,1655.17 1245,1658.5C 1243.83,1660.67 1241.99,1661.67 1239.5,1661.5C 1239.66,1664.19 1239.5,1666.85 1239,1669.5C 1238.29,1670.97 1237.12,1671.64 1235.5,1671.5C 1235.78,1675.79 1234.28,1679.12 1231,1681.5C 1230.67,1684.17 1230.33,1686.83 1230,1689.5C 1229,1690.17 1228,1690.83 1227,1691.5C 1227.4,1696.41 1225.23,1699.08 1220.5,1699.5C 1220.66,1702.19 1220.5,1704.85 1220,1707.5C 1219.29,1708.97 1218.12,1709.64 1216.5,1709.5C 1216.65,1713.75 1215.15,1717.08 1212,1719.5C 1211.67,1722.17 1211.33,1724.83 1211,1727.5C 1210,1728.17 1209,1728.83 1208,1729.5C 1207.71,1731.95 1207.04,1734.29 1206,1736.5C 1204.64,1737.38 1203.14,1737.71 1201.5,1737.5C 1201.83,1740.5 1200.5,1741.83 1197.5,1741.5C 1196.79,1744.79 1196.46,1748.12 1196.5,1751.5C 1193.46,1751.41 1191.79,1752.91 1191.5,1756C 1190.55,1756.48 1189.55,1756.65 1188.5,1756.5C 1189.69,1761.82 1187.69,1764.82 1182.5,1765.5C 1183.08,1768.55 1181.91,1770.55 1179,1771.5C 1177.96,1773.71 1177.29,1776.05 1177,1778.5C 1174.75,1780.41 1172.59,1782.41 1170.5,1784.5C 1169.67,1787.5 1168.83,1790.5 1168,1793.5C 1166.64,1794.38 1165.14,1794.71 1163.5,1794.5C 1163.78,1797.39 1162.45,1798.89 1159.5,1799C 1158.65,1801.36 1157.15,1803.2 1155,1804.5C 1154.73,1807.22 1154.23,1809.89 1153.5,1812.5C 1151.26,1814.51 1148.93,1816.35 1146.5,1818C 1145.7,1821.07 1143.7,1822.74 1140.5,1823C 1139.32,1826.31 1137.49,1829.15 1135,1831.5C 1129.52,1834.14 1126.52,1838.48 1126,1844.5C 1122.44,1844.95 1120.44,1846.95 1120,1850.5C 1114.83,1854.33 1110.33,1858.83 1106.5,1864C 1102.67,1863.83 1100.83,1865.67 1101,1869.5C 1097.97,1872.61 1094.8,1875.61 1091.5,1878.5C 1088.89,1879.23 1086.22,1879.73 1083.5,1880C 1079.13,1886.28 1074.3,1892.12 1069,1897.5C 1066.38,1900.05 1063.38,1902.05 1060,1903.5C 1059.74,1906.7 1058.07,1908.7 1055,1909.5C 1054.52,1910.45 1054.35,1911.45 1054.5,1912.5C 1050.21,1911.98 1046.87,1913.48 1044.5,1917C 1043.21,1917.49 1041.87,1917.66 1040.5,1917.5C 1040.78,1920.39 1039.45,1921.89 1036.5,1922C 1035.93,1923.21 1035.26,1924.37 1034.5,1925.5C 1032.15,1926.06 1029.81,1926.73 1027.5,1927.5C 1026.75,1928.74 1026.42,1930.07 1026.5,1931.5C 1023.27,1931.56 1020.94,1933.06 1019.5,1936C 1017.5,1936.33 1015.5,1936.67 1013.5,1937C 1011.21,1939.49 1008.88,1941.99 1006.5,1944.5C 1003.89,1945.23 1001.22,1945.73 998.5,1946C 997.333,1949.42 995.333,1952.25 992.5,1954.5C 990.224,1955.21 987.891,1955.71 985.5,1956C 984.833,1957 984.167,1958 983.5,1959C 980.776,1959.27 978.109,1959.77 975.5,1960.5C 974.141,1962.69 972.308,1964.36 970,1965.5C 969.51,1966.79 969.343,1968.13 969.5,1969.5C 966.513,1970 963.513,1970.5 960.5,1971C 959.833,1972 959.167,1973 958.5,1974C 956.167,1974.33 953.833,1974.67 951.5,1975C 950.663,1976.01 950.33,1977.18 950.5,1978.5C 947.119,1978.46 943.786,1978.79 940.5,1979.5C 940.719,1980.68 940.386,1981.68 939.5,1982.5C 937.224,1983.21 934.891,1983.71 932.5,1984C 931.62,1985.36 931.286,1986.86 931.5,1988.5C 928.513,1989 925.513,1989.5 922.5,1990C 921.833,1991 921.167,1992 920.5,1993C 918.167,1993.33 915.833,1993.67 913.5,1994C 912.833,1995 912.167,1996 911.5,1997C 907.627,1997.27 903.794,1997.77 900,1998.5C 897.763,2001.81 894.597,2003.31 890.5,2003C 889.833,2004 889.167,2005 888.5,2006C 884.5,2006.33 880.5,2006.67 876.5,2007C 874.996,2008.34 873.996,2010 873.5,2012C 869.5,2012.33 865.5,2012.67 861.5,2013C 860.643,2013.69 859.977,2014.52 859.5,2015.5C 855.5,2016.33 851.5,2017.17 847.5,2018C 846.833,2019.33 845.833,2020.33 844.5,2021C 840.833,2021.33 837.167,2021.67 833.5,2022C 832.833,2023.33 831.833,2024.33 830.5,2025C 825.5,2025.33 820.5,2025.67 815.5,2026C 813.992,2027.51 812.659,2029.17 811.5,2031C 806.5,2031.33 801.5,2031.67 796.5,2032C 795.09,2032.37 794.09,2033.2 793.5,2034.5C 786.195,2035.55 778.861,2036.39 771.5,2037C 770.624,2038.58 769.291,2039.58 767.5,2040C 759.5,2040.33 751.5,2040.67 743.5,2041C 742.167,2042 740.833,2043 739.5,2044C 725.958,2044.03 712.624,2044.86 699.5,2046.5C 662.833,2046.5 626.167,2046.5 589.5,2046.5C 574.705,2044.86 559.705,2044.03 544.5,2044C 543.167,2043 541.833,2042 540.5,2041C 532.5,2040.67 524.5,2040.33 516.5,2040C 514.709,2039.58 513.376,2038.58 512.5,2037C 505.177,2036.22 497.843,2035.56 490.5,2035C 489.833,2033.67 488.833,2032.67 487.5,2032C 482.5,2031.67 477.5,2031.33 472.5,2031C 471.167,2029.33 469.833,2027.67 468.5,2026C 463.167,2025.67 457.833,2025.33 452.5,2025C 451.833,2024 451.167,2023 450.5,2022C 446.833,2021.67 443.167,2021.33 439.5,2021C 438.167,2020.33 437.167,2019.33 436.5,2018C 432.558,2017.01 428.558,2016.34 424.5,2016C 423.833,2015 423.167,2014 422.5,2013C 418.5,2012.67 414.5,2012.33 410.5,2012C 409.87,2010.11 408.87,2008.44 407.5,2007C 404.774,2006.82 402.107,2006.32 399.5,2005.5C 399.167,2004.83 398.833,2004.17 398.5,2003.5C 395.215,2002.68 391.882,2002.18 388.5,2002C 385.302,1998.6 381.302,1996.93 376.5,1997C 375.833,1996 375.167,1995 374.5,1994C 372.109,1993.71 369.776,1993.21 367.5,1992.5C 366.614,1991.68 366.281,1990.68 366.5,1989.5C 361.349,1990.41 357.683,1988.57 355.5,1984C 353.109,1983.71 350.776,1983.21 348.5,1982.5C 347.614,1981.68 347.281,1980.68 347.5,1979.5C 344.513,1979 341.513,1978.5 338.5,1978C 337.833,1977 337.167,1976 336.5,1975C 334.109,1974.71 331.776,1974.21 329.5,1973.5C 328.614,1972.68 328.281,1971.68 328.5,1970.5C 323.445,1971.17 319.779,1969.34 317.5,1965C 313.162,1965.48 310.162,1963.81 308.5,1960C 307.552,1959.52 306.552,1959.35 305.5,1959.5C 305.67,1958.18 305.337,1957.01 304.5,1956C 299.648,1956.42 295.648,1954.92 292.5,1951.5C 290.547,1950.84 288.547,1950.51 286.5,1950.5C 286.579,1949.07 286.246,1947.74 285.5,1946.5C 283.5,1945.17 281.833,1943.5 280.5,1941.5C 277.891,1940.77 275.224,1940.27 272.5,1940C 270.5,1937.67 268.5,1935.33 266.5,1933C 263.833,1932.33 261.167,1931.67 258.5,1931C 254.575,1927.01 250.908,1922.85 247.5,1918.5C 244.893,1917.68 242.226,1917.18 239.5,1917C 234.973,1911.5 230.139,1906.33 225,1901.5C 224.517,1900.55 224.351,1899.55 224.5,1898.5C 220.372,1895.56 215.705,1893.56 210.5,1892.5C 209.63,1890.47 208.13,1889.14 206,1888.5C 206.266,1885.1 204.766,1883.43 201.5,1883.5C 201.567,1880.23 199.901,1878.73 196.5,1879C 195.929,1877.79 195.262,1876.63 194.5,1875.5C 192.204,1873.24 189.704,1871.24 187,1869.5C 187.266,1866.1 185.766,1864.43 182.5,1864.5C 182.649,1863.45 182.483,1862.45 182,1861.5C 178.439,1859.91 175.272,1857.74 172.5,1855C 171.663,1853.99 171.33,1852.82 171.5,1851.5C 168.234,1851.57 166.734,1849.9 167,1846.5C 165.989,1845.66 164.822,1845.33 163.5,1845.5C 163.649,1844.45 163.483,1843.45 163,1842.5C 159.282,1841.11 156.116,1838.95 153.5,1836C 152.663,1834.99 152.33,1833.82 152.5,1832.5C 151.178,1832.67 150.011,1832.34 149,1831.5C 148.667,1828.83 148.333,1826.17 148,1823.5C 144.818,1819.98 141.318,1816.82 137.5,1814C 136.5,1813.67 135.5,1813.33 134.5,1813C 133.648,1810.64 132.148,1808.8 130,1807.5C 129.73,1804.78 129.23,1802.11 128.5,1799.5C 124.047,1796.09 119.88,1792.42 116,1788.5C 114.908,1785.96 114.241,1783.29 114,1780.5C 111.667,1778.5 109.333,1776.5 107,1774.5C 106.355,1771.44 105.522,1768.44 104.5,1765.5C 102.474,1764.63 101.141,1763.13 100.5,1761C 99.062,1760.78 97.7287,1760.28 96.5,1759.5C 95.7868,1757.22 95.2868,1754.89 95,1752.5C 93.9887,1751.66 92.8221,1751.33 91.5,1751.5C 91.7229,1748.89 90.5562,1747.22 88,1746.5C 86.8512,1743.61 86.3512,1740.61 86.5,1737.5C 85.325,1737.72 84.325,1737.39 83.5,1736.5C 82.7868,1734.22 82.2868,1731.89 82,1729.5C 78.5667,1727.27 75.5667,1724.61 73,1721.5C 72.7132,1719.11 72.2132,1716.78 71.5,1714.5C 70.675,1713.61 69.675,1713.28 68.5,1713.5C 68.0022,1710.51 67.5022,1707.51 67,1704.5C 66,1703.83 65,1703.17 64,1702.5C 64.4784,1698.16 62.8117,1695.16 59,1693.5C 57.908,1690.96 57.2414,1688.29 57,1685.5C 56,1684.83 55,1684.17 54,1683.5C 53.7181,1679.96 53.2181,1676.46 52.5,1673C 49.3467,1669.9 47.6801,1666.07 47.5,1661.5C 46.5224,1661.02 45.6891,1660.36 45,1659.5C 45.3156,1655.86 43.9823,1653.2 41,1651.5C 40.5785,1647.13 39.9119,1642.79 39,1638.5C 37.6667,1637.83 36.3333,1637.17 35,1636.5C 34.6667,1633.17 34.3333,1629.83 34,1626.5C 32.9611,1623.99 31.6278,1621.65 30,1619.5C 29.6667,1616.5 29.3333,1613.5 29,1610.5C 28,1609.83 27,1609.17 26,1608.5C 25.6667,1604.83 25.3333,1601.17 25,1597.5C 24.3333,1596.17 23.3333,1595.17 22,1594.5C 21.0368,1588.53 20.5368,1582.53 20.5,1576.5C 19.0695,1576.58 17.7362,1576.25 16.5,1575.5C 15.6717,1570.87 15.1717,1566.2 15,1561.5C 13.9376,1558.66 12.6042,1555.99 11,1553.5C 10.6667,1548.83 10.3333,1544.17 10,1539.5C 9,1538.5 8,1537.5 7,1536.5C 6.66667,1530.17 6.33333,1523.83 6,1517.5C 5.58476,1515.71 4.58476,1514.38 3,1513.5C 1.92401,1501.53 1.25734,1489.53 1,1477.5C 0.78997,1475.94 0.28997,1474.61 -0.5,1473.5C -0.5,1426.17 -0.5,1378.83 -0.5,1331.5C 0.26791,1330.74 0.76791,1329.74 1,1328.5C 1.26204,1317.81 1.92871,1307.14 3,1296.5C 4.73984,1295.28 5.73984,1293.62 6,1291.5C 6.33333,1284.17 6.66667,1276.83 7,1269.5C 7.66667,1268.17 8.66667,1267.17 10,1266.5C 10.3019,1260.47 10.8019,1254.47 11.5,1248.5C 12.5,1248.5 13.5,1248.5 14.5,1248.5C 15.0758,1242.51 15.5758,1236.51 16,1230.5C 17.3333,1229.83 18.6667,1229.17 20,1228.5C 20.5935,1222.82 21.2602,1217.16 22,1211.5C 23.3333,1210.83 24.3333,1209.83 25,1208.5C 25.3333,1204.83 25.6667,1201.17 26,1197.5C 26.6667,1196.17 27.6667,1195.17 29,1194.5C 29.3333,1191.17 29.6667,1187.83 30,1184.5C 30.4152,1182.71 31.4152,1181.38 33,1180.5C 33.9418,1176.53 34.7751,1172.53 35.5,1168.5C 36.7362,1167.75 38.0695,1167.42 39.5,1167.5C 39.9981,1162.85 40.3314,1158.18 40.5,1153.5C 41.675,1153.72 42.675,1153.39 43.5,1152.5C 44.2132,1150.22 44.7132,1147.89 45,1145.5C 46,1144.83 47,1144.17 48,1143.5C 48.3333,1141.17 48.6667,1138.83 49,1136.5C 50.582,1135.04 51.9153,1133.37 53,1131.5C 53.3333,1127.83 53.6667,1124.17 54,1120.5C 56.9823,1118.8 58.3156,1116.14 58,1112.5C 59.4413,1111.13 61.108,1110.13 63,1109.5C 63.3333,1106.83 63.6667,1104.17 64,1101.5C 66.8916,1100.16 68.2249,1097.82 68,1094.5C 68.6667,1092.5 70,1091.17 72,1090.5C 72.4828,1089.55 72.6495,1088.55 72.5,1087.5C 73.8221,1087.67 74.9887,1087.34 76,1086.5C 75.6704,1081.49 77.6704,1077.82 82,1075.5C 81.6844,1071.86 83.0177,1069.2 86,1067.5C 86.3392,1064.96 86.8392,1062.46 87.5,1060C 89.8963,1057.35 92.3963,1054.85 95,1052.5C 94.3661,1047.93 96.1995,1045.1 100.5,1044C 101.029,1041.57 102.363,1039.74 104.5,1038.5C 105.795,1035.99 106.461,1033.32 106.5,1030.5C 109.541,1030.59 111.207,1029.09 111.5,1026C 112.448,1025.52 113.448,1025.35 114.5,1025.5C 114.26,1022.42 114.593,1019.42 115.5,1016.5C 116.729,1015.72 118.062,1015.22 119.5,1015C 122.667,1011.83 125.833,1008.67 129,1005.5C 129.333,1002.83 129.667,1000.17 130,997.5C 136.335,992.164 142.335,986.497 148,980.5C 148.333,978.5 148.667,976.5 149,974.5C 152.167,971.333 155.333,968.167 158.5,965C 161.667,964.5 163.5,962.667 164,959.5C 166.756,956.455 169.59,953.455 172.5,950.5C 175.262,947.679 178.429,945.346 182,943.5C 182.333,942.5 182.667,941.5 183,940.5C 185.756,937.455 188.59,934.455 191.5,931.5C 194.262,928.679 197.429,926.346 201,924.5C 202.649,921.743 204.482,919.076 206.5,916.5C 208.796,914.239 211.296,912.239 214,910.5C 214.483,909.552 214.649,908.552 214.5,907.5C 217.787,906.736 220.454,904.903 222.5,902C 224.167,901.667 225.833,901.333 227.5,901C 229.634,898.114 231.968,895.447 234.5,893C 235.448,892.517 236.448,892.351 237.5,892.5C 237.529,889.344 239.196,887.678 242.5,887.5C 244.466,884.148 247.466,882.648 251.5,883C 252.09,881.491 252.756,879.991 253.5,878.5C 256.69,875.419 260.023,872.585 263.5,870C 266.168,869.433 268.834,868.933 271.5,868.5C 271.351,867.448 271.517,866.448 272,865.5C 274.5,864.333 276.333,862.5 277.5,860C 280.044,858.908 282.711,858.241 285.5,858C 286.337,856.989 286.67,855.822 286.5,854.5C 289.114,854.723 290.781,853.556 291.5,851C 294.478,850.304 297.478,849.804 300.5,849.5C 300.325,846.671 301.658,845.004 304.5,844.5C 304.977,843.069 305.643,841.736 306.5,840.5C 310.192,840.224 313.192,838.724 315.5,836C 317.833,835.667 320.167,835.333 322.5,835C 323.973,834.29 324.64,833.124 324.5,831.5C 328.79,831.784 332.123,830.284 334.5,827C 337.167,826.667 339.833,826.333 342.5,826C 343.548,821.297 346.548,819.297 351.5,820C 352.167,819 352.833,818 353.5,817C 355.833,816.667 358.167,816.333 360.5,816C 361.973,815.29 362.64,814.124 362.5,812.5C 366.79,812.784 370.123,811.284 372.5,808C 375.167,807.667 377.833,807.333 380.5,807C 382.196,804.018 384.863,802.684 388.5,803C 389.87,801.559 390.87,799.892 391.5,798C 395.167,797.667 398.833,797.333 402.5,797C 406.77,794.189 411.103,791.523 415.5,789C 419.167,788.667 422.833,788.333 426.5,788C 427.833,787.333 428.833,786.333 429.5,785C 433.863,784.631 438.196,784.131 442.5,783.5C 442.421,782.07 442.754,780.736 443.5,779.5C 446.785,778.676 450.118,778.176 453.5,778C 455.269,776.936 456.936,775.769 458.5,774.5C 463.803,773.764 469.137,773.264 474.5,773C 475.167,772 475.833,771 476.5,770C 481.833,769.667 487.167,769.333 492.5,769C 493.833,768.333 494.833,767.333 495.5,766C 502.563,765.84 509.563,765.173 516.5,764C 517.743,762.846 518.743,761.512 519.5,760C 526.833,759.667 534.167,759.333 541.5,759C 545.113,756.772 549.113,755.438 553.5,755C 560.492,754.5 567.492,754.334 574.5,754.5C 574.334,749.489 574.501,744.489 575,739.5C 577.434,736.341 578.767,732.674 579,728.5C 579.333,720.5 579.667,712.5 580,704.5C 581.333,703.833 582.667,703.167 584,702.5C 584.745,691.838 585.411,681.172 586,670.5C 587.585,669.624 588.585,668.291 589,666.5C 589.333,657.167 589.667,647.833 590,638.5C 591,637.167 592,635.833 593,634.5C 593.333,624.833 593.667,615.167 594,605.5C 595.083,600.685 596.417,596.019 598,591.5C 598.168,583.147 598.668,574.813 599.5,566.5C 600.736,565.754 602.07,565.421 603.5,565.5C 604.03,554.839 604.53,544.172 605,533.5C 607.889,531.292 609.222,528.292 609,524.5C 610,523.833 611,523.167 612,522.5C 612.27,519.776 612.77,517.109 613.5,514.5C 615.692,513.141 617.359,511.308 618.5,509C 619.793,508.51 621.127,508.343 622.5,508.5C 622.998,505.513 623.498,502.513 624,499.5C 626.167,498.667 627.667,497.167 628.5,495C 632.582,495.129 635.582,493.462 637.5,490C 640.501,490.094 642.501,488.761 643.5,486C 648.159,486.011 651.492,484.011 653.5,480C 657.167,479.667 660.833,479.333 664.5,479C 665.167,477.667 666.167,476.667 667.5,476C 685.167,475.333 702.833,475.333 720.5,476C 722.49,477.751 724.823,478.751 727.5,479C 737.833,479.333 748.167,479.667 758.5,480C 760.037,481.11 760.703,482.61 760.5,484.5C 769.467,485.249 778.467,485.749 787.5,486C 788.833,486.667 789.833,487.667 790.5,489C 796.833,489.333 803.167,489.667 809.5,490C 812.351,492.289 815.685,493.623 819.5,494C 826.167,494.333 832.833,494.667 839.5,495C 840.5,496 841.5,497 842.5,498C 847.833,498.333 853.167,498.667 858.5,499C 860.262,503.801 863.762,505.634 869,504.5C 871.96,504.557 874.793,504.057 877.5,503C 881.5,498.667 885.5,494.333 889.5,490C 890.448,489.517 891.448,489.351 892.5,489.5C 892.351,488.448 892.517,487.448 893,486.5C 897.476,481.934 902.143,477.601 907,473.5C 907.333,471.5 907.667,469.5 908,467.5C 911.706,464.295 914.872,460.628 917.5,456.5C 919.915,453.92 922.749,451.92 926,450.5C 926.483,449.552 926.649,448.552 926.5,447.5C 927.552,447.649 928.552,447.483 929.5,447C 933.356,442.699 936.856,438.199 940,433.5C 941.667,432.833 943.333,432.167 945,431.5C 945.483,430.552 945.649,429.552 945.5,428.5C 946.822,428.67 947.989,428.337 949,427.5C 949.206,424.377 949.873,421.377 951,418.5C 953.833,415.667 956.667,412.833 959.5,410C 962.704,409.737 964.704,408.07 965.5,405C 966.448,404.517 967.448,404.351 968.5,404.5C 968.343,403.127 968.51,401.793 969,400.5C 973.517,396.254 978.184,392.254 983,388.5C 982.684,384.863 984.018,382.196 987,380.5C 987.212,377.56 988.712,375.726 991.5,375C 994.717,370.996 998.05,367.163 1001.5,363.5C 1005.16,363.171 1007.16,361.171 1007.5,357.5C 1008.63,356.738 1009.79,356.071 1011,355.5C 1012.94,353.104 1014.77,350.604 1016.5,348C 1017.45,347.517 1018.45,347.351 1019.5,347.5C 1019.93,344.834 1020.43,342.168 1021,339.5C 1024.5,336 1028,332.5 1031.5,329C 1032.45,328.517 1033.45,328.351 1034.5,328.5C 1034.35,327.448 1034.52,326.448 1035,325.5C 1040.74,320.886 1045.9,315.719 1050.5,310C 1051.45,309.517 1052.45,309.351 1053.5,309.5C 1053.35,308.448 1053.52,307.448 1054,306.5C 1056.84,304.12 1059.67,301.787 1062.5,299.5C 1063.64,296.938 1064.47,294.272 1065,291.5C 1067.56,290.781 1068.72,289.114 1068.5,286.5C 1069.55,286.649 1070.55,286.483 1071.5,286C 1072.67,283.5 1074.5,281.667 1077,280.5C 1077.42,276.95 1079.42,274.95 1083,274.5C 1083.48,273.552 1083.65,272.552 1083.5,271.5C 1086.5,271.833 1087.83,270.5 1087.5,267.5C 1088.55,267.649 1089.55,267.483 1090.5,267C 1091.67,264.5 1093.5,262.667 1096,261.5C 1096.33,260.167 1096.67,258.833 1097,257.5C 1100,255.5 1103,253.5 1106,251.5C 1106.29,249.109 1106.79,246.776 1107.5,244.5C 1108.32,243.614 1109.32,243.281 1110.5,243.5C 1110.49,241.692 1110.99,240.025 1112,238.5C 1114.83,235.667 1117.67,232.833 1120.5,230C 1122.02,228.991 1123.69,228.491 1125.5,228.5C 1125.32,225.671 1126.66,224.004 1129.5,223.5C 1132.49,218.981 1135.83,214.814 1139.5,211C 1141.02,209.991 1142.69,209.491 1144.5,209.5C 1144.34,207.143 1144.5,204.81 1145,202.5C 1148.01,201.159 1149.51,198.825 1149.5,195.5C 1152.33,195.675 1154,194.342 1154.5,191.5C 1156.75,189.084 1159.42,187.251 1162.5,186C 1163.33,183.833 1164.83,182.333 1167,181.5C 1168.01,179.975 1168.51,178.308 1168.5,176.5C 1169.55,176.649 1170.55,176.483 1171.5,176C 1174.3,172.699 1177.3,169.533 1180.5,166.5C 1181.21,164.224 1181.71,161.891 1182,159.5C 1184.83,158 1187,155.833 1188.5,153C 1189.45,152.517 1190.45,152.351 1191.5,152.5C 1191.35,151.448 1191.52,150.448 1192,149.5C 1197.72,144.903 1202.89,139.737 1207.5,134C 1208.45,133.517 1209.45,133.351 1210.5,133.5C 1210.35,132.448 1210.52,131.448 1211,130.5C 1217.35,127.488 1220.35,122.488 1220,115.5C 1221.4,114.773 1222.9,114.273 1224.5,114C 1225.34,112.989 1225.67,111.822 1225.5,110.5C 1226.55,110.649 1227.55,110.483 1228.5,110C 1230.34,107.331 1232.34,104.831 1234.5,102.5C 1237.68,101.797 1239.18,99.7967 1239,96.5C 1240.67,95.8333 1242.33,95.1667 1244,94.5C 1244.48,93.552 1244.65,92.552 1244.5,91.5C 1245.55,91.6495 1246.55,91.4828 1247.5,91C 1248.67,88.5 1250.5,86.6667 1253,85.5C 1253.48,84.552 1253.65,83.552 1253.5,82.5C 1254.82,82.67 1255.99,82.3366 1257,81.5C 1259.85,77.9642 1261.85,73.9642 1263,69.5C 1269.82,63.0905 1276.32,56.2572 1282.5,49C 1283.79,48.51 1285.13,48.3433 1286.5,48.5C 1286.32,45.6711 1287.66,44.0045 1290.5,43.5C 1293.58,40.3099 1296.41,36.9766 1299,33.5C 1299.57,30.8323 1300.07,28.1656 1300.5,25.5C 1301.87,25.6567 1303.21,25.49 1304.5,25C 1305.76,22.6142 1307.6,20.7808 1310,19.5C 1310.49,18.2068 1310.66,16.8734 1310.5,15.5C 1313.54,15.5944 1315.21,14.0944 1315.5,11C 1317.79,8.77656 1320.46,7.10989 1323.5,6C 1325.08,3.25588 1327.08,1.08921 1329.5,-0.5 Z"/></g>
<g><path style="opacity:1" fill="#fefefe" d="M 600.5,817.5 C 623.169,817.333 645.836,817.5 668.5,818C 702.056,818.556 734.723,824.223 766.5,835C 872.556,869.682 969.223,921.015 1056.5,989C 1136.66,1068.79 1189.16,1164.29 1214,1275.5C 1241.77,1408.09 1227.11,1535.75 1170,1658.5C 1100.03,1798.14 991.86,1895.3 845.5,1950C 721.215,1992.31 595.882,1995.64 469.5,1960C 295.513,1903.59 173.013,1791.09 102,1622.5C 65.2471,1528.41 52.5805,1431.08 64,1330.5C 89.9983,1146.87 180.165,1004.7 334.5,904C 416.239,853.809 504.906,824.976 600.5,817.5 Z"/></g>
<g><path style="opacity:1" fill="#092f6d" d="M 357.5,1082.5 C 405.427,1080.69 439.26,1101.36 459,1144.5C 472.519,1187.59 462.685,1224.43 429.5,1255C 389.356,1281.93 349.022,1282.26 308.5,1256C 276.553,1227.82 265.719,1192.99 276,1151.5C 290.233,1113.09 317.4,1090.09 357.5,1082.5 Z"/></g>
<g><path style="opacity:1" fill="#092f6d" d="M 878.5,1131.5 C 924.12,1129.21 956.62,1148.54 976,1189.5C 982.231,1206.98 984.231,1224.98 982,1243.5C 975.18,1288.99 949.013,1315.15 903.5,1322C 861.464,1327.57 828.631,1313.07 805,1278.5C 784.628,1239.05 787.295,1201.39 813,1165.5C 830.659,1146.09 852.492,1134.75 878.5,1131.5 Z"/></g>
<g><path style="opacity:1" fill="#000000" d="M 618.5,1350.5 C 655.865,1351.74 681.032,1369.74 694,1404.5C 702.561,1436.77 694.727,1464.27 670.5,1487C 656.715,1497.71 641.049,1503.04 623.5,1503C 570.117,1504.31 516.784,1503.31 463.5,1500C 438.877,1498.34 414.877,1493.67 391.5,1486C 385.513,1483.67 380.346,1480.17 376,1475.5C 374.048,1471.7 373.381,1467.7 374,1463.5C 375.565,1459.6 377.565,1455.93 380,1452.5C 393.646,1438.76 409.146,1427.59 426.5,1419C 487.497,1387.28 551.497,1364.45 618.5,1350.5 Z"/></g>
<g><path style="opacity:1" fill="#c50b22" d="M 1044.5,1488.5 C 1065.51,1485.53 1083.34,1491.53 1098,1506.5C 1100.19,1509.55 1101.86,1512.89 1103,1516.5C 1103.81,1524.22 1103.48,1531.89 1102,1539.5C 1053.37,1660.47 971.866,1752.3 857.5,1815C 750.072,1869.53 637.405,1884.2 519.5,1859C 385.836,1830.19 276.669,1762.69 192,1656.5C 183.508,1645.52 175.508,1634.18 168,1622.5C 149.946,1592.36 156.113,1568.86 186.5,1552C 208.96,1544.16 228.46,1548.66 245,1565.5C 318.82,1675.05 420.986,1742.55 551.5,1768C 714.142,1793.55 846.642,1742.39 949,1614.5C 958.826,1601.52 968.159,1588.18 977,1574.5C 990,1551.83 1003,1529.17 1016,1506.5C 1023.72,1497.56 1033.22,1491.56 1044.5,1488.5 Z"/></g>
</svg>
