<?xml version="1.0" encoding="UTF-8" standalone="no"?>
<!-- Created with Inkscape (http://www.inkscape.org/) -->

<svg
   xmlns:dc="http://purl.org/dc/elements/1.1/"
   xmlns:cc="http://creativecommons.org/ns#"
   xmlns:rdf="http://www.w3.org/1999/02/22-rdf-syntax-ns#"
   xmlns:svg="http://www.w3.org/2000/svg"
   xmlns="http://www.w3.org/2000/svg"
   xmlns:sodipodi="http://sodipodi.sourceforge.net/DTD/sodipodi-0.dtd"
   xmlns:inkscape="http://www.inkscape.org/namespaces/inkscape"
   width="395.38562"
   height="62.367298"
   viewBox="0 0 104.61244 16.501347"
   version="1.1"
   id="svg27132"
   inkscape:version="0.92.0 r15299"
   sodipodi:docname="kwik trip.svg">
  <defs
     id="defs27126" />
  <sodipodi:namedview
     id="base"
     pagecolor="#ffffff"
     bordercolor="#666666"
     borderopacity="1.0"
     inkscape:pageopacity="0.0"
     inkscape:pageshadow="2"
     inkscape:zoom="1.253125"
     inkscape:cx="289.4732"
     inkscape:cy="63.51692"
     inkscape:document-units="mm"
     inkscape:current-layer="layer1"
     showgrid="false"
     fit-margin-top="0"
     fit-margin-left="0"
     fit-margin-right="0"
     fit-margin-bottom="0"
     units="px"
     inkscape:window-width="1280"
     inkscape:window-height="744"
     inkscape:window-x="-4"
     inkscape:window-y="-4"
     inkscape:window-maximized="1" />
  <metadata
     id="metadata27129">
    <rdf:RDF>
      <cc:Work
         rdf:about="">
        <dc:format>image/svg+xml</dc:format>
        <dc:type
           rdf:resource="http://purl.org/dc/dcmitype/StillImage" />
        <dc:title></dc:title>
      </cc:Work>
    </rdf:RDF>
  </metadata>
  <g
     inkscape:label="Layer 1"
     inkscape:groupmode="layer"
     id="layer1"
     transform="translate(-46.871528,-237.07996)">
    <g
       id="g27284"
       style="fill:#e2383f;fill-opacity:1"
       transform="translate(0.26457995,-0.26458767)">
      <path
         d="M 64.85254,242.73167 V 253.581 h 4.4196 l 2.912886,-4.62139 -0.09984,4.62139 h 4.720166 l 6.630459,-10.84933 H 79.1164 l -3.114323,4.62033 v -4.62033 h -4.018138 l -3.314348,4.72087 v -4.72087 z"
         style="fill:#e2383f;fill-opacity:1;fill-rule:nonzero;stroke:none;stroke-width:0.35277778"
         id="path5038"
         inkscape:connector-curvature="0" />
      <path
         d="m 79.416719,253.58114 6.530975,-10.84933 h 4.016728 l -6.428317,10.84933 z"
         style="fill:#e2383f;fill-opacity:1;fill-rule:nonzero;stroke:none;stroke-width:0.35277778"
         id="path5042"
         inkscape:connector-curvature="0" />
      <path
         d="m 86.047008,253.58114 6.428317,-10.84933 h 3.918302 l -1.907822,3.11397 4.318705,-3.11397 h 5.02214 l -6.125981,4.51979 1.0033,6.32954 h -4.017081 l -0.703791,-3.71722 -3.616678,2.71216 -0.301272,1.00506 z"
         style="fill:#e2383f;fill-opacity:1;fill-rule:nonzero;stroke:none;stroke-width:0.35277778"
         id="path5046"
         inkscape:connector-curvature="0" />
      <path
         d="m 46.871528,253.58114 9.442803,-15.97201 h 4.319058 l -3.013428,5.5245 7.533569,-5.5245 h 5.425017 l -9.543697,7.33178 1.807986,8.64023 h -4.419247 l -1.105253,-6.12881 -4.62033,3.21557 -1.507067,2.91324 z"
         style="fill:#e2383f;fill-opacity:1;fill-rule:nonzero;stroke:none;stroke-width:0.35277778"
         id="path5050"
         inkscape:connector-curvature="0" />
      <path
         d="m 55.9624,238.96474 -5.625042,0.50341 H 55.9624"
         style="fill:#e2383f;fill-opacity:1;fill-rule:nonzero;stroke:none;stroke-width:0.35277778"
         id="path5054"
         inkscape:connector-curvature="0" />
      <path
         d="m 55.510669,240.67236 -3.918303,0.50236 h 4.319764"
         style="fill:#e2383f;fill-opacity:1;fill-rule:nonzero;stroke:none;stroke-width:0.35277778"
         id="path5058"
         inkscape:connector-curvature="0" />
      <path
         d="m 55.108854,242.07938 -3.91795,0.50236 h 4.319764"
         style="fill:#e2383f;fill-opacity:1;fill-rule:nonzero;stroke:none;stroke-width:0.35277778"
         id="path5062"
         inkscape:connector-curvature="0" />
      <path
         d="m 64.400671,238.4118 -3.917597,0.50271 h 4.319058"
         style="fill:#e2383f;fill-opacity:1;fill-rule:nonzero;stroke:none;stroke-width:0.35277778"
         id="path5066"
         inkscape:connector-curvature="0" />
      <path
         d="m 64.048281,239.41648 -3.91795,0.50306 h 4.320117"
         style="fill:#e2383f;fill-opacity:1;fill-rule:nonzero;stroke:none;stroke-width:0.35277778"
         id="path5070"
         inkscape:connector-curvature="0" />
      <path
         d="m 51.241246,247.20164 -3.917597,0.502 h 4.319411"
         style="fill:#e2383f;fill-opacity:1;fill-rule:nonzero;stroke:none;stroke-width:0.35277778"
         id="path5074"
         inkscape:connector-curvature="0" />
      <path
         d="m 51.391424,248.70843 -3.917597,0.502 h 4.319764"
         style="fill:#e2383f;fill-opacity:1;fill-rule:nonzero;stroke:none;stroke-width:0.35277778"
         id="path5078"
         inkscape:connector-curvature="0" />
      <path
         d="m 58.624497,250.06408 -3.91795,0.502 h 4.319764"
         style="fill:#e2383f;fill-opacity:1;fill-rule:nonzero;stroke:none;stroke-width:0.35277778"
         id="path5082"
         inkscape:connector-curvature="0" />
      <path
         d="m 59.728937,251.16983 -3.916892,0.502 h 4.318353"
         style="fill:#e2383f;fill-opacity:1;fill-rule:nonzero;stroke:none;stroke-width:0.35277778"
         id="path5086"
         inkscape:connector-curvature="0" />
      <path
         d="m 128.12397,253.58032 6.55496,-10.8906 h 4.03225 l -6.4523,10.8906 z"
         style="fill:#e2383f;fill-opacity:1;fill-rule:nonzero;stroke:none;stroke-width:0.35277778"
         id="path5090"
         inkscape:connector-curvature="0" />
      <path
         d="m 125.98201,247.42985 h -3.32775 l 1.00753,-1.71415 h 3.02507 c 1.81539,0.10019 0.9077,1.71415 -0.70485,1.71415 m 1.53811,-4.74027 h -5.84941 l -6.35247,10.8906 h 3.62973 l 1.91488,-3.32776 h 2.32093 l 0.20108,3.32776 h 3.63008 l -0.50341,-3.63009 c 6.42796,-0.78105 5.67125,-7.36176 1.00859,-7.26051"
         style="fill:#e2383f;fill-opacity:1;fill-rule:nonzero;stroke:none;stroke-width:0.35277778"
         id="path5094"
         inkscape:connector-curvature="0" />
      <path
         d="m 110.54365,253.58114 7.1441,-12.05371 h 4.35187 l 2.34527,-3.79554 h -14.0642 l -2.3435,3.79554 h 4.91067 l -7.03192,12.05371 z"
         style="fill:#e2383f;fill-opacity:1;fill-rule:nonzero;stroke:none;stroke-width:0.35277778"
         id="path5098"
         inkscape:connector-curvature="0" />
      <path
         d="m 110.71129,238.40139 -6.25122,0.55774 h 6.25122"
         style="fill:#e2383f;fill-opacity:1;fill-rule:nonzero;stroke:none;stroke-width:0.35277778"
         id="path5102"
         inkscape:connector-curvature="0" />
      <path
         d="m 110.2095,239.74068 -4.35363,0.55845 h 4.79989"
         style="fill:#e2383f;fill-opacity:1;fill-rule:nonzero;stroke:none;stroke-width:0.35277778"
         id="path5106"
         inkscape:connector-curvature="0" />
      <path
         d="m 111.66068,246.27116 -6.25087,0.55774 h 6.25087"
         style="fill:#e2383f;fill-opacity:1;fill-rule:nonzero;stroke:none;stroke-width:0.35277778"
         id="path5110"
         inkscape:connector-curvature="0" />
      <path
         d="m 110.87949,247.60952 -4.35363,0.55915 h 4.79989"
         style="fill:#e2383f;fill-opacity:1;fill-rule:nonzero;stroke:none;stroke-width:0.35277778"
         id="path5114"
         inkscape:connector-curvature="0" />
      <path
         d="m 110.71129,249.06029 -4.35187,0.55951 h 4.79778"
         style="fill:#e2383f;fill-opacity:1;fill-rule:nonzero;stroke:none;stroke-width:0.35277778"
         id="path5118"
         inkscape:connector-curvature="0" />
      <path
         d="m 145.54389,247.42985 h -3.32775 l 1.00965,-1.71415 h 3.02366 c 1.73954,0.17533 1.03399,1.61361 -0.70556,1.71415 m 0.32808,-4.74027 h -4.58893 l -6.50346,10.8906 h 3.83187 l 1.91665,-3.32776 h 4.99074 c 7.71419,-0.75635 6.65516,-8.06661 0.35313,-7.56284"
         style="fill:#e2383f;fill-opacity:1;fill-rule:nonzero;stroke:none;stroke-width:0.35277778"
         id="path5122"
         inkscape:connector-curvature="0" />
      <path
         d="m 149.20273,252.21994 v 0.16051 h -0.45932 v 1.20086 h -0.18767 v -1.20086 h -0.45967 v -0.16051 z"
         style="fill:#e2383f;fill-opacity:1;fill-rule:nonzero;stroke:none;stroke-width:0.35277778"
         id="path5126"
         inkscape:connector-curvature="0" />
      <path
         d="m 149.36621,252.21994 h 0.26564 l 0.39017,1.15111 0.38947,-1.15111 h 0.26388 v 1.36137 h -0.1778 v -0.80363 c 0,-0.0279 7e-4,-0.0737 0.002,-0.13793 0.002,-0.0642 0.002,-0.13335 0.002,-0.20673 l -0.39018,1.14829 h -0.18273 l -0.39053,-1.14829 v 0.0416 c 0,0.0335 0.001,0.0843 0.002,0.1524 0.002,0.0684 0.002,0.11853 0.002,0.15063 v 0.80363 h -0.1778 z"
         style="fill:#e2383f;fill-opacity:1;fill-rule:nonzero;stroke:none;stroke-width:0.35277778"
         id="path5130"
         inkscape:connector-curvature="0" />
    </g>
  </g>
</svg>
