<?xml version="1.0" encoding="UTF-8" standalone="no"?>
<!-- Created with Inkscape (http://www.inkscape.org/) -->

<svg
   xmlns:dc="http://purl.org/dc/elements/1.1/"
   xmlns:cc="http://creativecommons.org/ns#"
   xmlns:rdf="http://www.w3.org/1999/02/22-rdf-syntax-ns#"
   xmlns:svg="http://www.w3.org/2000/svg"
   xmlns="http://www.w3.org/2000/svg"
   xmlns:sodipodi="http://sodipodi.sourceforge.net/DTD/sodipodi-0.dtd"
   xmlns:inkscape="http://www.inkscape.org/namespaces/inkscape"
   width="325.93692"
   height="53.69849"
   viewBox="0 0 86.237479 14.207725"
   version="1.1"
   id="svg28169"
   inkscape:version="0.92.0 r15299"
   sodipodi:docname="pilot flyingj.svg">
  <defs
     id="defs28163">
    <clipPath
       id="clipPath28431"
       clipPathUnits="userSpaceOnUse">
      <path
         inkscape:connector-curvature="0"
         id="path28429"
         d="M 0,0 H 1836 V 792 H 0 Z" />
    </clipPath>
    <clipPath
       id="clipPath28415"
       clipPathUnits="userSpaceOnUse">
      <path
         inkscape:connector-curvature="0"
         id="path28413"
         d="M 0,0 H 1836 V 792 H 0 Z" />
    </clipPath>
  </defs>
  <sodipodi:namedview
     id="base"
     pagecolor="#ffffff"
     bordercolor="#666666"
     borderopacity="1.0"
     inkscape:pageopacity="0.0"
     inkscape:pageshadow="2"
     inkscape:zoom="1.325672"
     inkscape:cx="113.63962"
     inkscape:cy="77.427847"
     inkscape:document-units="mm"
     inkscape:current-layer="layer1"
     showgrid="false"
     fit-margin-top="0"
     fit-margin-left="0"
     fit-margin-right="0"
     fit-margin-bottom="0"
     units="px"
     inkscape:window-width="1280"
     inkscape:window-height="744"
     inkscape:window-x="-4"
     inkscape:window-y="-4"
     inkscape:window-maximized="1" />
  <metadata
     id="metadata28166">
    <rdf:RDF>
      <cc:Work
         rdf:about="">
        <dc:format>image/svg+xml</dc:format>
        <dc:type
           rdf:resource="http://purl.org/dc/dcmitype/StillImage" />
        <dc:title></dc:title>
      </cc:Work>
    </rdf:RDF>
  </metadata>
  <g
     inkscape:label="Layer 1"
     inkscape:groupmode="layer"
     id="layer1"
     transform="translate(8.5256529,-155.11173)">
    <g
       id="g41446"
       style="fill:#cf0a2c;fill-opacity:1"
       transform="translate(0.26458329,-0.26457759)">
      <path
         inkscape:connector-curvature="0"
         id="path28379"
         style="fill:#cf0a2c;fill-opacity:1;fill-rule:nonzero;stroke:none;stroke-width:0.35277778"
         d="m 8.2461081,160.08161 h -3.087158 v 6.96348 h 3.087158 z m 10.1130809,1.48484 v 1.1176 h 1.06327 v 3.28224 c 0,0.59443 0.490011,1.08691 1.089732,1.08691 h 5.850114 v -3.2826 h -3.094921 v 1.59456 0.56233 c 0,0 -0.100893,0.055 -0.23495,0.055 -0.289981,0 -0.515054,-0.22825 -0.515054,-0.51858 v -2.77989 h 3.844925 v -1.1176 H 22.51738 v -1.09397 h -3.094921 v 1.09397 z m -1.635126,5.48675 c 0.0099,0 0.01976,-3.5e-4 0.02999,-6.9e-4 h 0.0074 c 0.0078,-3.7e-4 0.01587,-7.1e-4 0.02364,-0.001 h 0.0049 c 0.572911,-0.0335 1.030111,-0.49812 1.030111,-1.08585 v -0.01 -3.13584 -0.01 c 0,-0.58772 -0.4572,-1.05198 -1.030111,-1.08549 -0.0014,0 -0.0035,-3.7e-4 -0.0049,-3.7e-4 -0.0078,-3.5e-4 -0.01587,-6.9e-4 -0.02364,-0.001 -0.0025,0 -0.0049,0 -0.0074,0 -0.01023,-3.5e-4 -0.02011,-3.5e-4 -0.02999,-3.5e-4 0,0 -6.228644,3.5e-4 -6.230761,3.5e-4 -0.0081,7.1e-4 -0.02681,0.002 -0.02893,0.002 -0.5729109,0.0335 -1.0301109,0.49777 -1.0301109,1.08549 v 0.01 3.13584 0.01 c 0,0.58773 0.4572,1.05233 1.0301109,1.08585 h 0.0053 c 0.0078,3.4e-4 0.01552,6.9e-4 0.02364,0.001 h 0.0071 c 0.01023,3.4e-4 0.01976,6.9e-4 0.02963,6.9e-4 z m -1.998839,-1.47214 c 0,0.29457 -0.233891,0.53411 -0.517877,0.53411 H 13.428766 13.04706 c -0.283986,0 -0.51823,-0.23954 -0.51823,-0.53411 v -2.38619 c 0,-0.29457 0.234244,-0.5341 0.51823,-0.5341 h 0.381706 0.778581 c 0.283986,0 0.517877,0.23953 0.517877,0.5341 z M 3.9866691,161.72273 H 0.89951115 v 5.33047 H 3.9866691 Z m 0,-1.64112 H 0.89951115 v 0.94579 H 3.9866691 Z m -5.3537548,-0.34396 h -7.1585672 v 9.5818 h 3.0945669 v -3.01696 h 4.0640003 c 0.60360195,0 1.09431595,-0.48013 1.09431595,-1.09008 v -4.3808 c 0,-0.49318 -0.419453,-1.09396 -1.09431595,-1.09396 m -2.0006032,5.11175 c 0,0.28469 -0.2293059,0.51576 -0.508353,0.51576 H -5.431086 v -4.68983 h 1.5476361 c 0.283986,0 0.515761,0.23707 0.515761,0.53164 z" />
      <g
         style="fill:#cf0a2c;fill-opacity:1"
         transform="matrix(0.35277777,0,0,-0.35277777,28.115046,166.17897)"
         id="g28381">
        <path
           inkscape:connector-curvature="0"
           id="path28383"
           style="fill:#cf0a2c;fill-opacity:1;fill-rule:nonzero;stroke:none"
           d="m 0,0 c 1.051,0 1.893,-0.858 1.893,-1.931 0,-1.084 -0.842,-1.935 -1.901,-1.935 -1.056,0 -1.915,0.851 -1.915,1.935 0,1.073 0.859,1.931 1.915,1.931 z m -0.008,-0.301 c -0.849,0 -1.542,-0.728 -1.542,-1.63 0,-0.914 0.693,-1.634 1.55,-1.634 0.858,-0.009 1.54,0.72 1.54,1.628 0,0.908 -0.682,1.636 -1.54,1.636 z M -0.371,-3.053 H -0.71 v 2.152 c 0.176,0.027 0.349,0.049 0.606,0.049 0.325,0 0.537,-0.068 0.666,-0.158 0.131,-0.097 0.201,-0.242 0.201,-0.448 0,-0.28 -0.192,-0.455 -0.422,-0.522 V -1.996 C 0.53,-2.032 0.662,-2.204 0.7,-2.519 0.752,-2.853 0.804,-2.984 0.84,-3.053 H 0.477 c -0.05,0.069 -0.099,0.266 -0.144,0.548 -0.052,0.275 -0.189,0.383 -0.462,0.383 h -0.242 z m 0,1.192 h 0.247 c 0.285,0 0.525,0.102 0.525,0.369 0,0.188 -0.135,0.38 -0.525,0.38 -0.106,0 -0.184,-0.01 -0.247,-0.019 z" />
      </g>
      <g
         style="fill:#cf0a2c;fill-opacity:1"
         transform="matrix(0.35277777,0,0,-0.35277777,76.514849,166.73914)"
         id="g28385">
        <path
           inkscape:connector-curvature="0"
           id="path28387"
           style="fill:#cf0a2c;fill-opacity:1;fill-rule:nonzero;stroke:none"
           d="m 0,0 c 1.051,0 1.893,-0.858 1.893,-1.931 0,-1.084 -0.842,-1.935 -1.901,-1.935 -1.056,0 -1.915,0.851 -1.915,1.935 0,1.073 0.859,1.931 1.915,1.931 z m -0.008,-0.301 c -0.849,0 -1.543,-0.728 -1.543,-1.63 0,-0.914 0.694,-1.634 1.551,-1.634 0.858,-0.009 1.54,0.72 1.54,1.628 0,0.908 -0.682,1.636 -1.54,1.636 z M -0.371,-3.053 H -0.71 v 2.152 c 0.175,0.027 0.349,0.049 0.605,0.049 0.326,0 0.538,-0.068 0.667,-0.158 0.131,-0.097 0.201,-0.242 0.201,-0.448 0,-0.28 -0.192,-0.455 -0.422,-0.522 V -1.996 C 0.53,-2.032 0.662,-2.204 0.7,-2.519 0.751,-2.853 0.804,-2.984 0.84,-3.053 H 0.477 c -0.05,0.069 -0.099,0.266 -0.144,0.548 -0.052,0.275 -0.19,0.383 -0.462,0.383 h -0.242 z m 0,1.192 h 0.247 c 0.284,0 0.525,0.102 0.525,0.369 0,0.188 -0.136,0.38 -0.525,0.38 -0.106,0 -0.184,-0.01 -0.247,-0.019 z" />
      </g>
      <g
         style="fill:#cf0a2c;fill-opacity:1"
         transform="matrix(0.35277777,0,0,-0.35277777,37.63994,163.19087)"
         id="g28389">
        <path
           inkscape:connector-curvature="0"
           id="path28391"
           style="fill:#cf0a2c;fill-opacity:1;fill-rule:nonzero;stroke:none"
           d="M 0,0 1.029,3.705 H 9.502 L 10.359,7.41 H -2.872 l -4.732,-18.525 h 4.783 l 1.91,7.41 H 7.26 L 8.169,0 Z" />
      </g>
      <g
         style="fill:#cf0a2c;fill-opacity:1"
         transform="matrix(0.35277777,0,0,-0.35277777,48.98481,160.57686)"
         id="g28393">
        <path
           inkscape:connector-curvature="0"
           id="path28395"
           style="fill:#cf0a2c;fill-opacity:1;fill-rule:nonzero;stroke:none"
           d="M 0,0 -4.671,-6.456 -6.8,0 h -4.785 l 3.51,-10.145 -2.095,-8.379 h 4.784 l 1.973,7.789 L 5.391,0 Z" />
      </g>
      <g
         style="fill:#cf0a2c;fill-opacity:1"
         transform="matrix(0.35277777,0,0,-0.35277777,51.278081,160.57686)"
         id="g28397">
        <path
           inkscape:connector-curvature="0"
           id="path28399"
           style="fill:#cf0a2c;fill-opacity:1;fill-rule:nonzero;stroke:none"
           d="M 0,0 -4.655,-18.524 H 0.154 L 4.809,0 Z" />
      </g>
      <g
         style="fill:#cf0a2c;fill-opacity:1"
         transform="matrix(0.35277777,0,0,-0.35277777,57.62244,160.57686)"
         id="g28401">
        <path
           inkscape:connector-curvature="0"
           id="path28403"
           style="fill:#cf0a2c;fill-opacity:1;fill-rule:nonzero;stroke:none"
           d="M 0,0 -2.683,-11.446 -5.637,0 h -4.758 l -4.733,-18.524 h 4.429 l 2.779,11.401 2.909,-11.401 h 4.709 L 4.429,0 Z" />
      </g>
      <g
         style="fill:#cf0a2c;fill-opacity:1"
         transform="matrix(0.35277777,0,0,-0.35277777,42.242031,165.99154)"
         id="g28405">
        <path
           inkscape:connector-curvature="0"
           id="path28407"
           style="fill:#cf0a2c;fill-opacity:1;fill-rule:nonzero;stroke:none"
           d="M 0,0 3.739,15.349 H -1.046 L -5.727,-3.176 H 6.569 L 7.538,0 Z" />
      </g>
      <g
         style="fill:#cf0a2c;fill-opacity:1"
         transform="matrix(0.35277777,0,0,-0.35277777,-289.4334,172.60167)"
         id="g28409">
        <g
           style="fill:#cf0a2c;fill-opacity:1"
           clip-path="url(#clipPath28415)"
           id="g28411">
          <g
             style="fill:#cf0a2c;fill-opacity:1"
             transform="translate(1012.3002,16.3505)"
             id="g28417">
            <path
               inkscape:connector-curvature="0"
               id="path28419"
               style="fill:#cf0a2c;fill-opacity:1;fill-rule:nonzero;stroke:none"
               d="m 0,0 c -0.525,1.282 -0.463,2.4 -0.315,3.519 l 0.156,1.445 c 0,0 -0.342,0.18 -0.965,0.225 C -1.539,5.22 -2.496,5.25 -3.617,5.23 -4.826,5.208 -5.099,5.006 -5.099,5.006 c 0,0 -0.128,-0.14 -0.307,-1.487 C -5.553,2.4 -5.615,1.282 -5.091,0 c 0.669,-1.635 1.59,-2.381 3.112,-3.019 1.315,-0.55 2.848,-0.84 4.101,-0.772 0.602,0.033 1.381,0.199 1.752,0.343 C 3.677,-3.394 3.417,-3.366 3.206,-3.295 1.643,-2.763 0.668,-1.635 0,0" />
          </g>
        </g>
      </g>
      <g
         style="fill:#cf0a2c;fill-opacity:1"
         transform="matrix(0.35277777,0,0,-0.35277777,71.668209,160.62751)"
         id="g28421">
        <path
           inkscape:connector-curvature="0"
           id="path28423"
           style="fill:#cf0a2c;fill-opacity:1;fill-rule:nonzero;stroke:none"
           d="M 0,0 V 0.001 Z" />
      </g>
      <g
         style="fill:#cf0a2c;fill-opacity:1"
         transform="matrix(0.35277777,0,0,-0.35277777,-289.4334,172.60167)"
         id="g28425">
        <g
           style="fill:#cf0a2c;fill-opacity:1"
           clip-path="url(#clipPath28431)"
           id="g28427">
          <g
             style="fill:#cf0a2c;fill-opacity:1"
             transform="translate(1033.6542,27.8418)"
             id="g28433">
            <path
               inkscape:connector-curvature="0"
               id="path28435"
               style="fill:#cf0a2c;fill-opacity:1;fill-rule:nonzero;stroke:none"
               d="m 0,0 -10.537,3.562 c 0,0 1.385,7.314 1.681,8.984 0.641,3.611 0.552,7.253 0.542,7.653 -10e-4,0.018 -0.003,0.031 -0.003,0.031 0,0 -10e-4,0.001 0,0.006 -0.444,-0.451 -2.218,-2.681 -3.468,-5.124 -11.894,1.114 -17.406,-6.788 -18.714,-9.171 -1.18,0.712 -2.736,1.202 -4.608,1.202 -0.057,0 -0.11,-0.004 -0.166,-0.005 -0.064,0.001 -0.126,0.005 -0.191,0.005 -7.159,0 -10.222,-6.607 -10.388,-11.342 -0.219,-6.287 3.774,-8.562 7.062,-8.562 0.052,0 0.099,0.004 0.149,0.005 0.07,-0.002 0.139,-0.005 0.208,-0.005 2.061,0 3.222,0.83 4.085,1.637 l -0.277,-1.156 h 4.328 l 2.556,10.585 h -8.196 l -0.91,-4.234 h 3.744 c -0.395,-1.058 -0.753,-1.865 -1.817,-2.641 -0.654,-0.472 -1.453,-0.64 -2.236,-0.671 -0.668,0.031 -1.323,0.252 -1.865,0.618 -1.334,0.91 -1.777,2.72 -1.716,4.459 0.115,3.27 1.884,7.456 5.351,7.574 0.426,-0.02 1.062,-0.108 1.672,-0.471 1.065,-0.642 1.242,-1.389 1.438,-2.272 l 4.648,1.179 c -0.001,0.003 -0.002,0.006 -0.002,0.009 l 0.003,-0.004 c 2.717,12.051 12.947,12.299 15.335,12.182 -0.375,-0.807 -0.717,-1.658 -0.986,-2.529 l -2.172,-7.449 -12.229,-4.191 -0.062,-1.03 h 11.294 l -1.924,-8.269 c -0.386,-1.585 -0.895,-2.01 -1.776,-2.241 1.043,-3.766 5.725,-1.402 6.073,0.019 0.167,0.634 2.596,10.642 2.596,10.642 L 0.05,-0.98 c 0,0 -0.003,0.646 -0.05,0.98" />
          </g>
          <g
             style="fill:#cf0a2c;fill-opacity:1"
             transform="translate(1026.1069,41.8725)"
             id="g28437">
            <path
               inkscape:connector-curvature="0"
               id="path28439"
               style="fill:#cf0a2c;fill-opacity:1;fill-rule:nonzero;stroke:none"
               d="m 0,0 c -0.056,-0.127 -0.123,-0.316 -0.157,-0.555 7.276,-3.023 10.669,-11.657 7.58,-19.384 -0.293,-0.735 -0.635,-1.435 -1.02,-2.097 -1.28,-2.386 -2.983,-4.016 -4.786,-5.127 -2.218,-1.488 -4.817,-2.301 -7.45,-2.408 0.106,-0.247 0.24,-0.481 0.397,-0.696 2.731,-0.711 10.695,-0.69 15.109,8.581 0.09,0.191 0.166,0.385 0.244,0.575 0.092,0.25 0.18,0.502 0.263,0.76 C 12.908,-11.755 8.194,-2.777 0,0" />
          </g>
        </g>
      </g>
    </g>
  </g>
</svg>
