<svg id="Layer_1" data-name="Layer 1" xmlns="http://www.w3.org/2000/svg" xmlns:xlink="http://www.w3.org/1999/xlink" viewBox="0 0 314 138"><defs><style>.cls-1{fill:none;}.cls-2{isolation:isolate;}.cls-3{clip-path:url(#clip-path);}.cls-4{fill:#ee3124;}.cls-5{fill:#11377d;}.cls-6{fill:#fff;}</style><clipPath id="clip-path"><rect class="cls-1" x="-145" y="-324" width="612" height="792"/></clipPath></defs><g class="cls-2"><g id="Layer-1"><g class="cls-3"><path class="cls-4" d="M288,26.33l-223.95.05c-4.46,0-9.9,3.63-12.09,8.07L29.11,78.75c-2.18,4.45-.32,8.08,4.14,8.08l224.16,0c4.46,0,9.9-3.64,12.08-8.08l22.78-44.3c2.19-4.44.23-8.08-4.23-8.08"/><path class="cls-5" d="M260.64,75.35a2.11,2.11,0,1,1,2.08-2.12,2.1,2.1,0,0,1-2.08,2.12m0-4.71a2.62,2.62,0,1,0,2.67,2.59,2.65,2.65,0,0,0-2.67-2.59"/><path class="cls-5" d="M261,73a.65.65,0,0,1-.39.12h-.42v-.66h.41a.62.62,0,0,1,.38.09.29.29,0,0,1,0,.45m.64-.2a.77.77,0,0,0-.12-.43.68.68,0,0,0-.34-.26,2.51,2.51,0,0,0-.8-.08h-.71V74.5h.52v-1h.48l.45,1h.51l-.48-1.08a.81.81,0,0,0,.38-.25.55.55,0,0,0,.11-.36"/><path class="cls-5" d="M264.41,49.26v0c-1.3-2.39-5.19-4.7-11.22-4.75h-.09A22.66,22.66,0,0,0,239,49.32a5.78,5.78,0,0,0-.39-.79c-2-3.37-6.38-3.86-10-3.9a26.76,26.76,0,0,0-8.78,1.21l-.57-.13a19.18,19.18,0,0,0-8.07-1.27,23.24,23.24,0,0,0-3.35.28h-3.56l4.31-7.95H173.68l-4.78,8.85a14.09,14.09,0,0,0-4.93-.9h0A23,23,0,0,0,148.17,51a7.47,7.47,0,0,0-.65-1.39c-2.13-3.57-6.56-4.84-10-4.83h0a22.83,22.83,0,0,0-14.59,5.19,6.71,6.71,0,0,0-.58-1.33c-2-3.37-6.39-3.85-10-3.9a24.38,24.38,0,0,0-11.94,2.54,8.31,8.31,0,0,0-1.58-6C97.05,38.87,94.08,37.45,90,37a30.29,30.29,0,0,0-3.07-.16l-18,0L48.84,76.06H67.19l3.29-6.24A5.08,5.08,0,0,0,71.09,74a4.57,4.57,0,0,0,4,2.06l15.15,0a9.78,9.78,0,0,0,3.54.65,19.83,19.83,0,0,0,8.57-1.83,6.07,6.07,0,0,0,3.6,1.16h15.47a14.78,14.78,0,0,0,3.29.56h.2c6.53,0,11.76-2.09,15.85-6.33a9.2,9.2,0,0,0,.72,1.51c1.82,3.07,5.26,4.78,9.69,4.8h.19a22.47,22.47,0,0,0,12.34-3.34l-1.46,2.87h32.88S200,65.7,201.46,62.92v0s1.43-2.94,4-3l-1.52,2.71c-1.06,2-2.35,4.44-2.14,7.09a7,7,0,0,0,2.76,5.08,10,10,0,0,0,1,.65,9.09,9.09,0,0,0,4.52,1.11,19.78,19.78,0,0,0,8.56-1.82,5.49,5.49,0,0,0,3.73,1.32H236a23.14,23.14,0,0,0,5.25.49h.36c7.94,0,15.16-4.32,19.83-11.85A30.31,30.31,0,0,0,264.67,58h0c1.64-4.34.61-7.28-.27-8.77"/><path class="cls-6" d="M214.16,48.07c-.85-.13-6.17-.8-10.57,1.64-.12.17.68-1.36.68-1.36h-8.33L184.11,72.46H193s5.91-12.72,7.33-14.44c2.4-2.94,3.66-3.38,10.53-3.38Z"/><path class="cls-6" d="M261.46,53.38a6.18,6.18,0,0,0-.19-1.34c-1-2.67-4.36-3.86-7.36-3.86-6.87,0-13.89,3.46-18.33,11.74-4.3,8-1.33,12.84,5,13.12h.63c5.62-.08,12-2.79,16.53-10h-8.05c-1.26,1.91-3.44,3.57-5.6,3.57-2.44,0-2.78-2-.81-5.66a16.85,16.85,0,0,1,1.87-2.74c1.27-2,2.78-3.6,5.12-3.71a1.93,1.93,0,0,1,1.93.8l0,0a1.21,1.21,0,0,1,.2.26,2.66,2.66,0,0,1,.18,2l7.33,0h.53a12.74,12.74,0,0,0,.66-1.52,11,11,0,0,0,.29-2.6s0,0,0,0"/><path class="cls-6" d="M84.14,51.72a7,7,0,0,1-1.58,1.43,7.47,7.47,0,0,1-3.9.75h-4.4l3.41-6.65h5c1.34,0,2.08.4,2.41,1,.53.95,0,2.4-.94,3.48m1.93,5.7a16.79,16.79,0,0,0,8-4.64,12.79,12.79,0,0,0,2-2.91,9.42,9.42,0,0,0,.87-2.63c.61-3.64-1.81-6.22-7.29-6.83a24.5,24.5,0,0,0-2.67-.14H71.08L54.52,72.55H64.78l5.86-11.46h4.17c1.47.11,3.67.76,2.26,3.77l-2.85,5.56h0a.14.14,0,0,0,0,.06c-.16.32-.91,2,.89,2h9.73A2.62,2.62,0,0,1,85,70l2.08-4,.15-.29c3.14-6.07,1.08-7.11-1.18-8.38"/><path class="cls-6" d="M127.74,66.59c-2.44,0-2.78-2-.8-5.66,1.54-2.85,4.51-6.07,7.21-6.14a2,2,0,0,1,1.93.8,2.84,2.84,0,0,1,.12,2.2l7.78,0c3.68-6.79-1.83-9.63-6.47-9.62-6.87,0-13.89,3.45-18.33,11.73S118,73,124.72,73.05c7,0,12.81-2.57,17-10h-8.39c-1.26,1.91-3.43,3.57-5.6,3.57"/><path class="cls-6" d="M107.59,61.7c-1.7,3.25-4,5.28-6.92,5.2-.91,0-2.31-.39-2-1.64.47-1.77,3-2.59,4.62-2.87l4.31-.76,0,.07m10-4c3.13-5.75,3.86-9.41-5.31-9.53-5.16-.07-9.1,1.13-12,3.22l0,0q-.36.26-.69.54a14.36,14.36,0,0,0-3.28,4h8.32c.14-.17.47-.56.69-.77a3.37,3.37,0,0,1,.36-.3,4,4,0,0,1,1-.63,4.4,4.4,0,0,1,1.39-.32,3.74,3.74,0,0,1,1.41.13.94.94,0,0,1,.51.39,1,1,0,0,1,0,.8,2.26,2.26,0,0,1-.84,1.12A3,3,0,0,1,108,57a9.07,9.07,0,0,1-1.65.19c-1.14.07-2.28.19-3.4.37a25.5,25.5,0,0,0-3.36.75,19.66,19.66,0,0,0-3.17,1.24,15.8,15.8,0,0,0-2.75,1.75,13.5,13.5,0,0,0-1.3,1.21c-2,2.15-5.12,7-1.82,9.54a4.35,4.35,0,0,0,.57.38,5.73,5.73,0,0,0,2.81.66,16.58,16.58,0,0,0,9.44-2.79s0,0,0,0c.07.23-.15,2.1,1.84,2.1h6.71a5.43,5.43,0,0,1,.2-3.23Z"/><path class="cls-6" d="M161.11,53.8c1,0,1.76.32,2,1.07a3.56,3.56,0,0,1-.15,2.76h-7.81c1.93-2.14,4.11-3.78,6-3.84m-2.35,10.77a7.5,7.5,0,0,1-4.16,2,2.82,2.82,0,0,1-.41,0c-2.13,0-2.66-1.52-1.43-4.36h15.67l2.34-4.59h0c3-6.64-2.37-9.45-6.78-9.44-6.88,0-13.9,3.45-18.33,11.73S144.46,73,151.18,73c7,0,12.83-2.57,16-8.46h-8.41Z"/><path class="cls-6" d="M181.27,40.21h0Z"/><path class="cls-6" d="M191,47.31h8.26l3.84-7.1H176l-3.82,7.09h8.95L168.41,72.47h9.7L191,47.31Z"/><path class="cls-6" d="M224,61.7C222.26,65,220,67,217,66.9c-.91,0-2.31-.39-2-1.64.48-1.77,3.06-2.59,4.62-2.87l4.31-.76,0,.07m10-4c3.14-5.75,3.87-9.41-5.3-9.53-5.16-.07-9.1,1.13-12,3.22l0,0q-.36.26-.69.54a14.4,14.4,0,0,0-3.29,4H221c.14-.17.47-.56.69-.77a2.6,2.6,0,0,1,.36-.3,3.81,3.81,0,0,1,1-.63,4.52,4.52,0,0,1,1.4-.32,3.74,3.74,0,0,1,1.41.13.92.92,0,0,1,.5.39.93.93,0,0,1,0,.8,2.39,2.39,0,0,1-.84,1.12,3,3,0,0,1-1.25.62,9.07,9.07,0,0,1-1.65.19c-1.14.07-2.28.19-3.41.37a25.35,25.35,0,0,0-3.35.75,19.66,19.66,0,0,0-3.17,1.24A15.44,15.44,0,0,0,210,61.27a12.41,12.41,0,0,0-1.3,1.21c-2,2.15-5.12,7-1.83,9.54a5.13,5.13,0,0,0,.57.38,5.76,5.76,0,0,0,2.81.66,16.61,16.61,0,0,0,9.45-2.79s0,0,0,0c.08.23-.14,2.1,1.85,2.1h6.7a5.47,5.47,0,0,1,.21-3.23Z"/><path class="cls-5" d="M44.16,102.26h2.69l-1.57,9.68h0l4.31-9.68h2.6L50.8,111.9h0l4.08-9.64h2.41l-6.92,15.42H47.87l1.47-10.26h-.09l-4.61,10.26H42.06Z"/><path class="cls-5" d="M59,102.26h2.71l-1.86,6.33h3l1.86-6.33h2.69L62.84,117.6H60.15l1.93-6.54h-3l-1.92,6.54H54.48Z"/><path class="cls-5" d="M72.33,111.68l.77-6.36H73l-3,6.36Zm0-9.44H76L74.46,117.6H71.73l.38-3.72H69l-1.78,3.72H64.65Z"/><path class="cls-5" d="M81.45,104.56h-2.9l.67-2.3h8.52l-.67,2.3H84.18l-3.83,13H77.62Z"/><path class="cls-5" d="M89.48,102.26h7l-.68,2.3H91.5l-1.17,4H93.8l-.69,2.32H89.65l-1.3,4.44h4.36L92,117.6H85Z"/><path class="cls-5" d="M97.77,102.26h2.71l-1.3,10.41h.09l4.84-10.41h2.45l-7.48,15.42H96.22Z"/><path class="cls-5" d="M108.09,102.26h7l-.68,2.3H110.1l-1.16,4h3.46l-.68,2.32h-3.46L107,115.28h4.37l-.68,2.32h-7.06Z"/><path class="cls-5" d="M119.05,109.34c1,0,1.72-.73,2.21-2.41.44-1.48.25-2.39-.83-2.39h-1.2l-1.41,4.8Zm-1.86-7.08h4.15c2.54,0,3.6,1.44,2.71,4.48-.65,2.19-1.76,3.48-3,4l0,6.84h-2.82l.16-6.24h-1.14l-1.84,6.24h-2.71Z"/><path class="cls-5" d="M127.38,113.92l2.36-8a5.47,5.47,0,0,1,5.37-3.86c2.26,0,3.72,1.27,3.06,3.51l-.48,1.64h-2.5l.42-1.42c.26-.89-.23-1.42-1.13-1.42a2.08,2.08,0,0,0-2,1.63l-2.32,7.9c-.29,1,.06,1.61,1,1.61a1.82,1.82,0,0,0,1.87-1.44l.73-2.48h-1.68l.61-2.06H137l-1.37,4.67a5.08,5.08,0,0,1-5.14,3.65c-2.48,0-3.9-1.31-3.14-3.89"/><path class="cls-5" d="M141.3,102.26h7l-.68,2.3h-4.34l-1.17,4h3.47l-.69,2.32h-3.46l-1.3,4.44h4.36l-.68,2.32h-7Z"/><path class="cls-5" d="M152,104.56h-2.91l.68-2.3h8.52l-.68,2.3h-2.88l-3.83,13h-2.74Z"/><path class="cls-5" d="M156.05,113.55l2.57-.08c-.21,1-.23,2.15.87,2.15a1.94,1.94,0,0,0,1.74-1.61,2.7,2.7,0,0,0-.7-2.46L159.47,110a4.38,4.38,0,0,1-.91-4.13,5.18,5.18,0,0,1,5-3.83c1.87,0,3.26,1,2.46,4.16l-2.42.08c.23-1.2.15-2-.82-2a1.8,1.8,0,0,0-1.65,1.44c-.24.84.34,1.63.87,2.39l1,1.44a4.68,4.68,0,0,1,.92,4.41,5.36,5.36,0,0,1-5.1,3.93c-2.43,0-3.39-1.61-2.77-4.26"/><path class="cls-5" d="M172.35,111.45l-.46-9.19h2.88l.06,6,3.49-6h2.58l-5.84,9.19-1.8,6.15h-2.72Z"/><path class="cls-5" d="M184.31,113.81l2.32-7.89c.28-1-.14-1.53-1.08-1.53a2,2,0,0,0-2,1.57l-2.31,7.85c-.27.93,0,1.62,1.06,1.62a2.08,2.08,0,0,0,2-1.62m-5.78,0,2.27-7.7a5.52,5.52,0,0,1,5.47-4c2.36,0,3.89,1.24,3.09,4l-2.27,7.73a5.53,5.53,0,0,1-5.49,4.1c-2.54,0-3.88-1.29-3.07-4"/><path class="cls-5" d="M189.12,113.9l3.42-11.64h2.75l-3.38,11.51c-.33,1.14.15,1.68,1,1.68a2,2,0,0,0,1.94-1.66l3.39-11.53h2.59l-3.4,11.55a5.49,5.49,0,0,1-5.4,4c-2.49,0-3.72-1.25-2.93-3.94"/><path class="cls-5" d="M203,113.92l2.36-8a5.47,5.47,0,0,1,5.37-3.86c2.26,0,3.72,1.27,3.06,3.51l-.48,1.64h-2.5l.42-1.42c.26-.89-.23-1.42-1.13-1.42a2.08,2.08,0,0,0-2,1.63l-2.32,7.9c-.29,1,.06,1.61,1.05,1.61a1.82,1.82,0,0,0,1.87-1.44l.73-2.48h-1.68l.61-2.06h4.3l-1.38,4.67a5.06,5.06,0,0,1-5.14,3.65c-2.47,0-3.89-1.31-3.13-3.89"/><path class="cls-5" d="M219.13,113.81l2.32-7.89c.28-1-.13-1.53-1.08-1.53a2,2,0,0,0-2,1.57l-2.31,7.85c-.27.93,0,1.62,1.05,1.62a2.07,2.07,0,0,0,2-1.62m-5.77,0,2.26-7.7a5.53,5.53,0,0,1,5.47-4c2.37,0,3.89,1.24,3.1,4l-2.27,7.73a5.54,5.54,0,0,1-5.49,4.1c-2.54,0-3.88-1.29-3.07-4"/><path class="cls-5" d="M227.45,102.26h2.71l-4.51,15.34h-2.71Z"/><path class="cls-5" d="M232.51,102.26h2.79l.8,8.86h.06l2.61-8.86h2.41l-4.51,15.34h-2.45l-.88-9.83h0l-2.89,9.83H228Z"/><path class="cls-5" d="M239.9,113.92l2.36-8a5.47,5.47,0,0,1,5.37-3.86c2.26,0,3.72,1.27,3.06,3.51l-.48,1.64h-2.5l.42-1.42c.26-.89-.23-1.42-1.13-1.42a2.08,2.08,0,0,0-2,1.63l-2.32,7.9c-.29,1,.07,1.61,1.05,1.61a1.82,1.82,0,0,0,1.87-1.44l.73-2.48h-1.68l.61-2.06h4.3l-1.37,4.67a5.08,5.08,0,0,1-5.14,3.65c-2.48,0-3.9-1.31-3.14-3.89"/><path class="cls-5" d="M255.47,106.71a2.11,2.11,0,0,1-2.14-2.1,2.14,2.14,0,0,1,2.12-2.11,2.11,2.11,0,0,1,0,4.21m0-4.71a2.63,2.63,0,1,0,2.67,2.59,2.65,2.65,0,0,0-2.67-2.59"/><path class="cls-5" d="M255.83,104.37a.65.65,0,0,1-.39.12H255v-.67h.42a.64.64,0,0,1,.38.09.3.3,0,0,1,.11.23.28.28,0,0,1-.1.23m.65-.21a.75.75,0,0,0-.13-.42.61.61,0,0,0-.34-.27,2.8,2.8,0,0,0-.8-.08h-.71v2.46H255v-1h.47l.45,1h.52l-.48-1.08a.89.89,0,0,0,.38-.25.62.62,0,0,0,.11-.37"/></g></g></g></svg>