<?xml version="1.0" encoding="UTF-8" standalone="no"?>
<!-- Created with Inkscape (http://www.inkscape.org/) -->

<svg
   xmlns:dc="http://purl.org/dc/elements/1.1/"
   xmlns:cc="http://creativecommons.org/ns#"
   xmlns:rdf="http://www.w3.org/1999/02/22-rdf-syntax-ns#"
   xmlns:svg="http://www.w3.org/2000/svg"
   xmlns="http://www.w3.org/2000/svg"
   xmlns:sodipodi="http://sodipodi.sourceforge.net/DTD/sodipodi-0.dtd"
   xmlns:inkscape="http://www.inkscape.org/namespaces/inkscape"
   width="190.95901mm"
   height="143.59065mm"
   viewBox="0 0 676.62644 508.78577"
   id="svg2"
   version="1.1"
   inkscape:version="0.91 r13725"
   sodipodi:docname="1954_Sunoco_logo.svg">
  <defs
     id="defs4" />
  <sodipodi:namedview
     id="base"
     pagecolor="#ffffff"
     bordercolor="#666666"
     borderopacity="1.0"
     inkscape:pageopacity="0.0"
     inkscape:pageshadow="2"
     inkscape:zoom="0.49497475"
     inkscape:cx="-243.07147"
     inkscape:cy="70.959168"
     inkscape:document-units="px"
     inkscape:current-layer="g12"
     showgrid="false"
     fit-margin-top="0"
     fit-margin-left="0"
     fit-margin-right="0"
     fit-margin-bottom="0"
     inkscape:window-width="1680"
     inkscape:window-height="931"
     inkscape:window-x="0"
     inkscape:window-y="1"
     inkscape:window-maximized="1" />
  <metadata
     id="metadata7">
    <rdf:RDF>
      <cc:Work
         rdf:about="">
        <dc:format>image/svg+xml</dc:format>
        <dc:type
           rdf:resource="http://purl.org/dc/dcmitype/StillImage" />
        <dc:title />
      </cc:Work>
    </rdf:RDF>
  </metadata>
  <g
     inkscape:label="Layer 1"
     inkscape:groupmode="layer"
     id="layer1"
     transform="translate(-365.9195,-142.69733)">
    <g
       id="g10"
       transform="matrix(4.153855,0,0,-4.153855,306.55344,881.11982)"
       style="fill:#000000">
      <g
         id="g12"
         transform="scale(0.1,0.1)"
         style="fill:#000000">
        <path
           d="m 1771.83,1109.48 -106.82,61.38 0,77.53 c 0.43,4.28 2.36,32.31 -18.08,51.79 -17.4,16.6 -45.3,21.71 -82.91,15.22 l -132.39,-16.01 -465.384,250.4 -234.336,-124.01 -67.742,64.97 -2.227,72.73 -246.437,214.2 -3.074,-165.12 -158.836,-27.62 238.066,-210.42 73.305,8.88 32.039,-29.01 -88.484,-46.83 -140.875,18.46 c -1.848,0.24 -45.473,5.59 -74.559,-19.95 -16.379,-14.37 -24.68,-35.39 -24.68,-62.46 l 0,-64.53 -125.488,-61.68 125.488,-65.94 0,-60.538 c -0.14,-3.367 -1.07,-39.383 21.879,-63.543 13.285,-13.981 31.68,-21.07 54.668,-21.07 l 179.895,0 441.414,-234.098 261.238,142.273 139.68,-116.242 -74.72,-39.429 341.03,-105.985 -158.57,326.598 -25.95,-85.117 -96.9,88.019 47.66,25.957 197.33,0 c 3.57,-0.277 29.72,-1.637 49,15.875 13.23,12.012 19.94,29.766 19.94,52.766 l 0,72.724 105.83,59.83"
           style="fill:#000080;fill-opacity:1;fill-rule:evenodd;stroke:none"
           id="path22"
           inkscape:connector-curvature="0" />
        <path
           d="m 567.922,1392.71 -73.367,-8.89 -221.215,195.53 147.844,25.71 2.851,153.42 229.145,-199.16 2.215,-72.46 68.238,-65.46 -118.27,-62.59 -37.441,33.9"
           style="fill:#ff0000;fill-opacity:1;fill-rule:evenodd;stroke:none"
           id="path24"
           inkscape:connector-curvature="0" />
        <path
           d="m 1453.38,778.297 23.44,76.867 139.71,-287.754 -300.98,93.531 67.52,35.637 -147.18,122.481 107.91,58.765 109.58,-99.527"
           style="fill:#d40000;fill-opacity:1;fill-rule:evenodd;stroke:none"
           id="path26"
           inkscape:connector-curvature="0" />
        <path
           d="m 1651.19,1058.29 0,-81.364 c 0,-18.59 -5.05,-32.625 -15,-41.715 -15.35,-14.027 -37.92,-12.164 -38.14,-12.141 l -202.1,0.032 -429.778,-234.075 -437.641,232.098 -183.578,0 c -18.73,0 -33.488,5.516 -43.859,16.391 -19.207,20.144 -17.899,52.55 -17.883,52.875 l 0.008,0.175 c 0,0.016 0,0.192 0,0.192 l 0,69.662 -107.61,56.54 107.61,52.9 0,73.75 c 0,22.59 6.59,39.84 19.582,51.28 23.976,21.12 62.547,16.49 62.933,16.44 l 145.543,-19.08 454.911,240.75 462.562,-248.87 137.15,16.57 0.19,0.02 0.19,0.04 c 32.79,5.7 56.45,1.93 70.33,-11.2 16.32,-15.45 13.67,-39.63 13.64,-39.87 l -0.05,-0.9 0,-86.51 91.71,-52.7 -90.72,-51.29"
           style="fill:#ffff00;fill-opacity:1;fill-rule:evenodd;stroke:none"
           id="path28"
           inkscape:connector-curvature="0" />
        <path
           d="m 760.215,1238.99 0,-291.385 69.562,0 0,134.535 63.004,-134.535 69.567,0 0,279.575 c -11.813,1.31 -60.379,1.31 -69.567,3.94 l 0,-128.64 -57.754,129.95 c -11.808,2.62 -65.625,5.25 -74.812,6.56"
           style="fill:#000080;fill-opacity:1;fill-rule:evenodd;stroke:none"
           id="path30"
           inkscape:connector-curvature="0" />
        <path
           d="m 532.805,1258.68 0,-254.64 c 0,-27.56 9.187,-56.435 48.566,-56.435 l 72.188,0 c 28.875,0 64.316,-10.503 64.316,56.435 l 0,237.57 c -15.75,2.63 -56.441,5.25 -69.566,7.88 l 0,-240.2 -45.938,0 0,241.51 c -14.441,2.63 -51.191,5.25 -69.566,7.88"
           style="fill:#000080;fill-opacity:1;fill-rule:evenodd;stroke:none"
           id="path32"
           inkscape:connector-curvature="0" />
        <path
           d="m 308.016,1252.11 0,-81.37 c 0,-28.88 -2.621,-47.26 28.879,-63.01 l 80.066,-44.62 0,-53.82 -39.375,0 0,40.69 -69.57,0 0,-45.94 c 0,-26.247 10.5,-56.435 51.191,-56.435 l 66.941,0 c 30.188,0 60.379,9.188 60.379,52.505 l 0,70.87 c 0,22.32 -5.254,35.44 -23.629,48.57 l -85.312,49.22 0,55.78 39.375,-7.87 0,-28.87 c 11.812,-3.61 46.59,-4.91 69.566,-9.18 l 0,53.8 c 0,21 -3.937,34.12 -32.816,39.37 l -85.313,14.44 c -28.875,2.63 -57.757,-2.62 -60.382,-34.13"
           style="fill:#000080;fill-opacity:1;fill-rule:evenodd;stroke:none"
           id="path34"
           inkscape:connector-curvature="0" />
        <path
           style="fill:#000080;fill-opacity:1;fill-rule:evenodd;stroke:none"
           d="m 558.29883,555.29688 c -0.46428,-0.005 -0.95921,0.0167 -1.48438,0.0605 l -11.19922,1.40039 c -3.15066,0.7 -6.47461,0.87428 -6.47461,9.09961 l 0,24.76367 c 0,6.47467 1.22373,8.22461 6.6504,8.22461 l 10.32421,0 c 3.85067,0 7.17579,6e-5 7.17579,-8.22461 l 0,-29.3125 c 0,-4.59433 -1.74224,-5.97374 -4.99219,-6.01171 z m -4.28321,8.94335 0,26.38086 -5.33789,0 0,-25.68164 5.33789,-0.69922 z"
           transform="matrix(7.5000002,0,0,-7.5000002,-2601.4783,5438.9513)"
           id="path36"
           inkscape:connector-curvature="0" />
        <path
           style="fill:#000080;fill-opacity:1;fill-rule:evenodd;stroke:none"
           d="m 499.17773,560.84375 c -0.30117,-0.005 -0.61722,0.004 -0.94531,0.0254 l -11.375,0.52539 c -2.27466,0.17467 -5.77539,0.52617 -5.77539,6.82617 l 0,25.02539 c 0,3.32454 1.22383,5.59961 5.42383,5.59961 l 11.72656,0 c 2.97467,0 7,-0.35039 7,-6.65039 l 0,-23.97461 c 0,-4.26625 -1.53703,-7.30213 -6.05469,-7.37695 z m -8.55859,8.16406 5.07617,0 0,21.61328 -5.07617,0 0,-21.61328 z"
           transform="matrix(7.5000002,0,0,-7.5000002,-2601.4783,5438.9513)"
           id="path40"
           inkscape:connector-curvature="0" />
        <path
           d="m 1228.12,1188.8 0,-179.51 c 0,-48.56 19.04,-61.685 46.27,-61.685 l 82.02,0 c 31.84,0 50.22,1.649 50.22,51.524 l 0,44.291 -68.25,0 0,-34.13 -38.73,0 0,171.95 38.73,1.31 0,-35.44 68.25,3.94 0,46.91 c 0,19.69 -6.24,51.53 -56.12,47.59 l -69.89,-5.25 c -26.25,-2.62 -53.32,-3.27 -52.5,-51.5"
           style="fill:#000080;fill-opacity:1;fill-rule:evenodd;stroke:none"
           id="path44"
           inkscape:connector-curvature="0" />
      </g>
    </g>
  </g>
</svg>
