<?xml version="1.0" encoding="UTF-8" standalone="no"?>
<!-- Created with Inkscape (http://www.inkscape.org/) -->
<svg
   xmlns:dc="http://purl.org/dc/elements/1.1/"
   xmlns:cc="http://creativecommons.org/ns#"
   xmlns:rdf="http://www.w3.org/1999/02/22-rdf-syntax-ns#"
   xmlns:svg="http://www.w3.org/2000/svg"
   xmlns="http://www.w3.org/2000/svg"
   xmlns:sodipodi="http://sodipodi.sourceforge.net/DTD/sodipodi-0.dtd"
   xmlns:inkscape="http://www.inkscape.org/namespaces/inkscape"
   width="73.090874"
   height="28.28475"
   id="svg2638"
   sodipodi:version="0.32"
   inkscape:version="0.46"
   version="1.0"
   sodipodi:docname="Sysco-Logo.svg"
   inkscape:output_extension="org.inkscape.output.svg.inkscape">
  <defs
     id="defs2640">
    <clipPath
       clipPathUnits="userSpaceOnUse"
       id="clipPath89">
      <path
         d="M 275.539,13.846 L 344.078,13.846 L 344.078,47.077 L 275.539,47.077 L 275.539,13.846 z"
         id="path91" />
    </clipPath>
    <inkscape:perspective
       sodipodi:type="inkscape:persp3d"
       inkscape:vp_x="0 : 526.18109 : 1"
       inkscape:vp_y="0 : 1000 : 0"
       inkscape:vp_z="744.09448 : 526.18109 : 1"
       inkscape:persp3d-origin="372.04724 : 350.78739 : 1"
       id="perspective2646" />
  </defs>
  <sodipodi:namedview
     id="base"
     pagecolor="#ffffff"
     bordercolor="#666666"
     borderopacity="1.0"
     inkscape:pageopacity="0.0"
     inkscape:pageshadow="2"
     inkscape:zoom="7.7437847"
     inkscape:cx="36.545437"
     inkscape:cy="14.14237"
     inkscape:document-units="px"
     inkscape:current-layer="g87"
     showgrid="false"
     inkscape:window-width="640"
     inkscape:window-height="667"
     inkscape:window-x="44"
     inkscape:window-y="58" />
  <metadata
     id="metadata2643">
    <rdf:RDF>
      <cc:Work
         rdf:about="">
        <dc:format>image/svg+xml</dc:format>
        <dc:type
           rdf:resource="http://purl.org/dc/dcmitype/StillImage" />
      </cc:Work>
    </rdf:RDF>
  </metadata>
  <g
     inkscape:label="Ebene 1"
     inkscape:groupmode="layer"
     id="layer1"
     transform="translate(-89.16885,-328.22915)">
    <g
       transform="matrix(1.25,0,0,-1.25,-260.86565,375.88903)"
       id="g85">
      <g
         id="g87"
         clip-path="url(#clipPath89)">
        <g
           id="g93"
           transform="translate(290.5826,34.5119)">
          <path
             d="M 0,0 C -1.133,0.482 -2.698,0.826 -3.961,0.826 C -5.197,0.826 -6.794,0.293 -6.794,-1.634 C -6.794,-4.703 1.088,-3.41 1.088,-9.345 C 1.088,-13.225 -2.029,-14.696 -5.661,-14.696 C -7.619,-14.696 -8.494,-14.442 -10.272,-14.012 L -10.276,-10.816 C -9.039,-11.475 -7.284,-11.907 -5.867,-11.907 C -4.501,-11.907 -2.673,-11.222 -2.673,-9.624 C -2.673,-6.251 -10.555,-7.645 -10.555,-1.787 C -10.555,2.17 -7.438,3.616 -4.27,3.616 C -2.724,3.616 -1.282,3.413 0.032,2.982 L 0,0 z"
             style="fill:#0081c6;fill-opacity:1;fill-rule:nonzero;stroke:none"
             id="path95" />
        </g>
        <g
           id="g97"
           transform="translate(311.2371,30.0906)">
          <path
             d="M 0,0 C -1.025,0.345 -1.954,0.542 -3.18,0.542 C -4.08,0.542 -5.156,0.222 -5.156,-0.862 C -5.156,-2.881 0.672,-1.601 0.672,-6.181 C 0.672,-9.136 -2.004,-10.318 -4.731,-10.318 C -6.006,-10.318 -7.307,-10.096 -8.532,-9.776 L -8.332,-7.067 C -7.282,-7.585 -6.181,-7.905 -5.031,-7.905 C -4.18,-7.905 -2.83,-7.585 -2.83,-6.353 C -2.83,-3.866 -8.657,-5.565 -8.657,-0.985 C -8.657,1.748 -6.232,2.955 -3.605,2.955 C -2.029,2.955 -1.004,2.709 0.047,2.487 L 0,0 z"
             style="fill:#0081c6;fill-opacity:1;fill-rule:nonzero;stroke:none"
             id="path99" />
        </g>
        <g
           id="g101"
           transform="translate(321.8495,30.0167)">
          <path
             d="M 0,0 C -0.6,0.271 -1.25,0.468 -2.275,0.468 C -4.352,0.468 -5.677,-1.157 -5.677,-3.546 C -5.677,-5.885 -4.552,-7.683 -2.201,-7.683 C -1.25,-7.683 -0.2,-7.338 0.375,-7.092 L 0.525,-9.825 C -0.45,-10.12 -1.451,-10.244 -2.826,-10.244 C -7.053,-10.244 -9.179,-7.412 -9.179,-3.546 C -9.179,0.123 -6.978,3.029 -2.951,3.029 C -1.601,3.029 -0.625,2.881 0.301,2.61 L 0,0 z"
             style="fill:#0081c6;fill-opacity:1;fill-rule:nonzero;stroke:none"
             id="path103" />
        </g>
        <g
           id="g105"
           transform="translate(329.4816,22.334)">
          <path
             d="M 0,0 C 2.576,0 3.251,2.265 3.251,4.383 C 3.251,6.328 2.201,8.15 0,8.15 C -2.176,8.15 -3.226,6.279 -3.226,4.383 C -3.226,2.29 -2.551,0 0,0 M 0,10.711 C 3.826,10.711 6.752,8.175 6.752,3.989 C 6.752,0.345 4.277,-2.561 0,-2.561 C -4.251,-2.561 -6.728,0.345 -6.728,3.989 C -6.728,8.175 -3.801,10.711 0,10.711"
             style="fill:#0081c6;fill-opacity:1;fill-rule:nonzero;stroke:none"
             id="path107" />
        </g>
        <g
           id="g109"
           transform="translate(302.9557,32.9221)">
          <path
             d="M 0,0 L -3.402,0 L -9.801,-17.422 L -6.727,-17.422 L 0,0 z"
             style="fill:#0081c6;fill-opacity:1;fill-rule:nonzero;stroke:none"
             id="path111" />
        </g>
        <g
           id="g113"
           transform="translate(289.0517,33.2355)">
          <path
             d="M 0,0 C 1.421,-1.439 2.837,-3.192 3.863,-5.248 C 4.781,-7.089 5.245,-8.882 5.577,-10.689 C 5.591,-10.752 5.633,-10.747 5.657,-10.698 C 6.879,-8.563 7.627,-5.657 6.533,-3.467 C 5.387,-1.169 2.633,-0.112 0.046,0.101 C -0.044,0.105 -0.06,0.058 0,0"
             style="fill:#6db33f;fill-opacity:1;fill-rule:nonzero;stroke:none"
             id="path115" />
        </g>
        <g
           id="g149"
           transform="translate(283.9327,40.5467)" />
        <g
           id="g153"
           transform="translate(285.0757,41.9298)" />
        <g
           id="g193"
           transform="translate(336.1708,32.7686)">
          <path
             d="M 0,0 L -0.459,0 L -0.459,0.166 L 0.659,0.166 L 0.659,0 L 0.197,0 L 0.197,-1.345 L 0,-1.345 L 0,0 z"
             style="fill:#0081c6;fill-opacity:1;fill-rule:nonzero;stroke:none"
             id="path195" />
        </g>
        <g
           id="g197"
           transform="translate(338.2713,32.0871)">
          <path
             d="M 0,0 C -0.011,0.208 -0.024,0.466 -0.024,0.652 L -0.029,0.652 C -0.083,0.477 -0.143,0.285 -0.22,0.078 L -0.487,-0.655 L -0.634,-0.655 L -0.881,0.065 C -0.953,0.278 -1.011,0.473 -1.053,0.652 L -1.058,0.652 C -1.062,0.464 -1.074,0.211 -1.087,-0.016 L -1.127,-0.663 L -1.313,-0.663 L -1.208,0.847 L -0.959,0.847 L -0.702,0.117 C -0.639,-0.069 -0.589,-0.238 -0.549,-0.394 L -0.545,-0.394 C -0.504,-0.242 -0.451,-0.074 -0.383,0.117 L -0.114,0.847 L 0.135,0.847 L 0.229,-0.663 L 0.036,-0.663 L 0,0 z"
             style="fill:#0081c6;fill-opacity:1;fill-rule:nonzero;stroke:none"
             id="path199" />
        </g>
      </g>
    </g>
  </g>
</svg>
